<svg xmlns="http://www.w3.org/2000/svg" width="31.315" height="30.701" viewBox="0 0 31.315 30.701">
  <g id="attach" transform="translate(-1760.636 -734.93)">
    <g id="Group_1239" data-name="Group 1239" transform="translate(1760.636 734.93)">
      <g id="Group_1238" data-name="Group 1238">
        <path id="Path_1354" data-name="Path 1354" d="M1786.852,743.627a3.557,3.557,0,1,0,3.557,3.557A3.557,3.557,0,0,0,1786.852,743.627Zm0,5.734a2.177,2.177,0,1,1,2.177-2.177A2.177,2.177,0,0,1,1786.852,749.361Z" transform="translate(-1763.864 -736.175)" fill="#fff"/>
        <path id="Path_1355" data-name="Path 1355" d="M1786.876,765.719a.677.677,0,0,0-.374-.373.639.639,0,0,0-.129-.04.672.672,0,0,0-.268,0,.651.651,0,0,0-.13.04.713.713,0,0,0-.119.063.665.665,0,0,0-.19.191.675.675,0,0,0-.063.119.59.59,0,0,0-.039.13.644.644,0,0,0,0,.269.589.589,0,0,0,.039.13.641.641,0,0,0,.063.119.727.727,0,0,0,.086.106.608.608,0,0,0,.051.045.529.529,0,0,0,.054.04.764.764,0,0,0,.12.064.715.715,0,0,0,.129.039.672.672,0,0,0,.268,0,.729.729,0,0,0,.13-.039.713.713,0,0,0,.119-.064c.019-.012.037-.026.055-.04l.051-.045a.72.72,0,0,0,.085-.106.653.653,0,0,0,.064-.119.719.719,0,0,0,.04-.13.674.674,0,0,0,0-.269A.726.726,0,0,0,1786.876,765.719Z" transform="translate(-1763.586 -738.872)" fill="#fff"/>
        <path id="Path_1356" data-name="Path 1356" d="M1776.015,738.408a.8.8,0,0,0-.063-.119.669.669,0,0,0-.086-.1.614.614,0,0,0-.1-.086.686.686,0,0,0-.12-.063.668.668,0,0,0-.129-.04.682.682,0,0,0-.27,0,.709.709,0,0,0-.247.1.621.621,0,0,0-.106.086.722.722,0,0,0-.085.1.82.82,0,0,0-.064.119.716.716,0,0,0-.039.13.674.674,0,0,0,0,.269.717.717,0,0,0,.039.13.82.82,0,0,0,.064.119.791.791,0,0,0,.085.106.673.673,0,0,0,.106.085.744.744,0,0,0,.118.064.732.732,0,0,0,.129.039.682.682,0,0,0,.27,0,.73.73,0,0,0,.129-.039.763.763,0,0,0,.12-.064.665.665,0,0,0,.1-.085.727.727,0,0,0,.086-.106.8.8,0,0,0,.063-.119.59.59,0,0,0,.039-.13.64.64,0,0,0,0-.269A.589.589,0,0,0,1776.015,738.408Z" transform="translate(-1762.3 -734.93)" fill="#fff"/>
        <path id="Path_1357" data-name="Path 1357" d="M1788.532,737.637a3.524,3.524,0,0,0-3.423-2.707h-19.188a5.292,5.292,0,0,0-5.285,5.285v19.194a35.6,35.6,0,0,0,6.84,6.222h20.957a3.523,3.523,0,0,0,3.517-3.517V741.153A3.521,3.521,0,0,0,1788.532,737.637Zm2.194,24.473a2.3,2.3,0,0,1-2.294,2.294h-20.956a2.3,2.3,0,0,1-2.294-2.294v-3.244l7.016-11.9a1.153,1.153,0,0,1,2.005.035l3.021,5.549,4.391,8.064a.612.612,0,1,0,1.074-.586h0l-1.424-2.615a2.521,2.521,0,0,0,1.731-.581l2.751-2.283a1.158,1.158,0,0,1,1.515.038l.144.132,1.223,1.12,2.1,1.924Zm0-6.005-2.1-1.927-1.223-.931a2.385,2.385,0,0,0-2.44.358l-2.751,2.282a1.31,1.31,0,0,1-1.993-.383l-1.93-3.542-1.077-1.979h0l-1.944-3.57a2.376,2.376,0,0,0-4.133-.071l-5.955,10.115v-15.3a2.3,2.3,0,0,1,2.294-2.293h3.779a.611.611,0,0,0,0-1.223h-3.779a3.522,3.522,0,0,0-3.517,3.517V761.69a2.3,2.3,0,0,1-2.1-2.281V740.215a4.067,4.067,0,0,1,4.062-4.062h19.189a2.3,2.3,0,0,1,2.146,1.483h-11.109a.611.611,0,1,0,0,1.223h11.264l1.223.008a2.3,2.3,0,0,1,2.1,2.286Z" transform="translate(-1760.636 -734.93)" fill="#fff"/>
      </g>
    </g>
  </g>
</svg>
