<svg data-name="Component 24 – 1" xmlns="http://www.w3.org/2000/svg" width="147.506" height="147.525">
    <g data-name="Group 1361" style="opacity:.1">
        <path data-name="Path 2" d="M147.393 81.546a1.668 1.668 0 0 0-.506-.735 11.56 11.56 0 0 0-1.247-1.032 37.245 37.245 0 0 0-3.692-2.339c-1.322-.752-2.691-1.418-3.707-1.889s-1.691-.755-1.691-.755 1.583-.617 3.553-1.573h-10.31c-.955.558-1.626.912-1.876 1.019-.385.167.668.906 2.421 2.065l3.018 2.037c.562.386 1.154.792 1.748 1.215s1.173.858 1.768 1.305c1.186.893 2.393 1.832 3.5 2.745 1.087.909 2.1 1.8 2.97 2.578s1.6 1.458 2.087 1.933l.77.752.073-.252c.047-.161.121-.393.186-.68.134-.573.311-1.353.481-2.179.085-.413.169-.838.246-1.253.061-.418.11-.827.151-1.207a8.656 8.656 0 0 0 .057-1.755z"/>
        <path data-name="Path 3" d="M147.307 68.158a8.563 8.563 0 0 0 .2-2.322c-.039-1-.17-2.156-.309-3.251-.061-.549-.167-1.076-.262-1.563s-.188-.93-.266-1.308l-.27-1.234a61.37 61.37 0 0 1-6.675 7.24c-.833.792-1.759 1.581-2.664 2.329s-1.806 1.458-2.674 2.107a67.464 67.464 0 0 1-4.592 3.067h10.314a41.121 41.121 0 0 0 4.589-2.628 14.943 14.943 0 0 0 1.765-1.355 3.088 3.088 0 0 0 .844-1.082z"/>
        <path data-name="Path 4" d="M139.489 107.334c-.072-.169-.5-.216-1.183-.178s-1.628.159-2.774.3l-3.823.484c-1.394.159-2.893.291-4.357.406l-1.1.08-1.108.051c-.733.031-1.451.054-2.144.072s-1.352.034-2 .026l-1.839-.029c-1.152-.03-2.107-.048-2.873-.084a10.575 10.575 0 0 0-1.5 0c-.441.071-.293 1.457-.01 3.526.324 2.1.75 4.895 1.123 7.818l.487 4.3c.152 1.394.263 2.68.4 3.81.271 2.252.6 3.785 1.132 3.725a6.159 6.159 0 0 0 3.252-1.739 6 6 0 0 0 1.793-2.928 11.428 11.428 0 0 0-.269-2.67 41.868 41.868 0 0 0-.409-1.968l-.252-1.037c-.092-.35-.19-.7-.289-1.051-.788-2.782-1.729-5.2-1.729-5.2l1.149.066 3.039.2.985.067 1.035.057 2.239.137c.777.052 1.581.11 2.395.179s1.61.128 2.416.214c.434.047 1.077-.445 1.795-1.216a24.1 24.1 0 0 0 2.128-2.948c.658-1.1 1.229-2.22 1.653-3.052.217-.413.355-.777.468-1.022z"/>
        <path data-name="Path 5" d="M100.769 139.599c.118-.383-1.078-1.291-2.843-2.478l-.686-.458-.738-.5-1.576-1.071c-1.084-.737-2.213-1.5-3.337-2.332l-1.652-1.213c-.54-.4-1.062-.781-1.574-1.189l-2.769-2.169c-1.635-1.3-2.787-2.183-3.2-2.1s-1.155 1.261-2.16 3.091l-.39.712-.417.736-.9 1.6c-.628 1.107-1.308 2.328-2.014 3.479l-2.121 3.478-1.921 3.069c-1.133 1.841-1.869 3.206-1.654 3.589a2.924 2.924 0 0 0 1.516 1.009 10.016 10.016 0 0 0 2.6.6 12.714 12.714 0 0 0 2.622.02 2.356 2.356 0 0 0 1.536-.613 34.342 34.342 0 0 0 1.844-5.939c.7-2.69 1.359-5.335 2.078-5.8.365-.225.969.214 1.739 1.006s1.707 1.94 2.7 3.1a37.632 37.632 0 0 0 2.931 3.093c.91.82 1.7 1.358 2.138 1.223s1.155-.326 1.989-.582c.415-.132.865-.259 1.314-.43s.908-.353 1.355-.542c1.807-.735 3.382-1.71 3.59-2.389z"/>
        <path data-name="Path 6" d="M51.148 141.69c.266-.309.048-1.8-.342-3.83-.2-1-.415-2.2-.648-3.432s-.47-2.516-.679-3.813a193.883 193.883 0 0 1-.992-7.074c-.125-.968-.24-1.775-.363-2.359s-.236-.977-.384-1.059-.569 0-1.214.218c-.322.107-.7.245-1.125.408l-1.4.523c-1.015.38-2.209.845-3.49 1.307-1.27.444-2.646.912-4.05 1.369s-2.79.846-4.135 1.239-2.6.729-3.678 1.039c-2.166.62-3.638 1.144-3.563 1.583a4.288 4.288 0 0 0 1.021 1.718 10.593 10.593 0 0 0 .973 1.016c.369.328.766.652 1.173.958s.825.591 1.234.843a8.1 8.1 0 0 0 1.21.6 2.626 2.626 0 0 0 1.825.252c.4-.182 1.231-.577 2.259-1.14s2.218-1.243 3.334-1.923 2.152-1.34 2.925-1.871l1.253-.866c.617-.078.921.558 1.085 1.594a34.219 34.219 0 0 1 .258 3.907c.048 1.467.083 3.034.242 4.244a4.153 4.153 0 0 0 .768 2.43 11.677 11.677 0 0 0 1.53.944 21.168 21.168 0 0 0 1.975.906 6.925 6.925 0 0 0 1.853.5 1.321 1.321 0 0 0 1.145-.231z"/>
        <path data-name="Path 7" d="M11.654 110.603c.6.128 1.375-1.291 2.272-3.369l1.48-3.518.826-1.942.422-.981.455-.99.906-1.935c.3-.63.584-1.237.9-1.833a226.628 226.628 0 0 1 1.677-3.173 18.55 18.55 0 0 0 1.679-3.207 12.09 12.09 0 0 0-2.833-1c-.832-.256-1.839-.55-2.881-.9s-2.166-.745-3.313-1.169c-.57-.213-1.159-.43-1.721-.657l-1.664-.689a136.652 136.652 0 0 1-3.088-1.355c-1.863-.857-3.259-1.564-3.76-1.727s-.786.153-.929.755a6.532 6.532 0 0 0 .01 2.418 16.9 16.9 0 0 0 .653 2.753 6.3 6.3 0 0 0 .882 1.769 5.715 5.715 0 0 0 1.883.992 31.333 31.333 0 0 0 3.181.939c1.1.27 2.165.482 2.95.622.39.072.719.123.951.156l.361.052s-.388.541-.956 1.408c-.284.434-.614.951-.961 1.523l-.533.9a39.44 39.44 0 0 0-.513.946 33.339 33.339 0 0 0-1.771 3.882 6.325 6.325 0 0 0-.533 2.631 18.689 18.689 0 0 0 1.354 3.9c.084.176.171.35.261.519s.2.327.3.483a7.545 7.545 0 0 0 .641.85 2.77 2.77 0 0 0 1.412.947z"/>
        <path data-name="Path 8" d="m21.236 61.692-1.372.512c-.664.259-1.527.6-2.527 1.026a69.9 69.9 0 0 0-6.979 3.437 78.725 78.725 0 0 0-6.7 4.3c-1.852 1.33-3.23 2.387-3.583 2.619-.371.23.71 1.263 2.542 2.537a36.786 36.786 0 0 0 3.288 2.014 55.06 55.06 0 0 0 3.933 1.981 62.158 62.158 0 0 0 7.678 2.872c1.066.32 1.952.558 2.573.718l.975.244s-.1-1.1-.271-2.318c-.074-.609-.125-1.253-.218-1.8a5.6 5.6 0 0 0-.313-1.25 5.241 5.241 0 0 0-2-1.024c-1.106-.427-2.564-.934-3.973-1.457-2.8-1.035-5.554-2.148-5.554-2.148l1.579-.731c.974-.438 2.283-1.016 3.614-1.6l1.976-.862 1.8-.8a6.411 6.411 0 0 0 2.124-1.261 14.537 14.537 0 0 0 .941-4 44.32 44.32 0 0 0 .328-2.1c.031-.28.08-.505.106-.663z"/>
        <path data-name="Path 9" d="M25.735 97.516c-.328-.02-1.232 1.1-2.345 2.952a39.48 39.48 0 0 0-1.687 3.242c-.285.612-.582 1.264-.852 1.927s-.525 1.342-.776 2.04-.492 1.41-.72 2.126-.414 1.415-.6 2.119-.351 1.394-.5 2.068q-.109.507-.216.994l-.17.938a22.437 22.437 0 0 0-.479 4.888c.044.267.475.5 1.185.676a11.055 11.055 0 0 0 1.26.23c.24.031.493.06.761.082s.556.032.851.042a36.477 36.477 0 0 0 3.927-.1 45.271 45.271 0 0 0 5.436-.85 45.787 45.787 0 0 0 3.107-.844c.651-.203 1.269-.414 1.848-.628s1.134-.452 1.63-.675c1.991-.9 3.2-1.742 3.108-2.176a4.1 4.1 0 0 0-1.674-2.214 4.9 4.9 0 0 0-1.279-.655 3.232 3.232 0 0 0-1.236-.208c-.75.052-3.553 1.071-6.232 1.829a123.36 123.36 0 0 1-3.659 1.018l-1.621.4s.059-.434.195-1.166.338-1.748.681-2.944a37.125 37.125 0 0 1 1.359-3.908 29.491 29.491 0 0 1 2.094-4.074c.416-.7-.513-2.411-1.469-4.011-.231-.4-.472-.8-.7-1.161l-.338-.52-.282-.473c-.359-.587-.607-.964-.607-.964z"/>
        <path data-name="Path 10" d="M52.24 125.173c-.3.218-.272 1.607.094 3.634a38.139 38.139 0 0 0 2.173 7.284 49.845 49.845 0 0 0 1.786 3.807c.318.622.653 1.19.987 1.739s.669 1.07 1 1.554.65.932.957 1.333.6.726.876 1.012a3.171 3.171 0 0 0 1.278.964 2.682 2.682 0 0 0 1.447-.519 19.393 19.393 0 0 0 2.312-1.742 38.892 38.892 0 0 0 5.357-5.771 45.487 45.487 0 0 0 2.3-3.359 32.346 32.346 0 0 0 1.716-3.08c.913-1.893 1.351-3.29 1.169-3.662-.375-.748-1.746-1.244-3.088-1.545-1.347-.236-2.68-.285-3.069.26s-1.3 3.129-2.438 5.572a30.026 30.026 0 0 1-1.78 3.38c-.592.932-1.163 1.613-1.595 1.716s-.909-.52-1.362-1.532a24.6 24.6 0 0 1-1.251-3.84c-.37-1.437-.687-2.884-.983-3.988a12.464 12.464 0 0 0-.438-1.381c-.147-.351-.3-.572-.465-.619a50.843 50.843 0 0 0-1.515-.41c-.634-.186-1.36-.4-2.083-.571-.729-.15-1.422-.345-2.022-.4a2.111 2.111 0 0 0-1.363.164z"/>
        <path data-name="Path 11" d="M90.93 126.295c.007.4.879 1.516 2.321 2.927.36.352.757.723 1.185 1.106s.886.776 1.362 1.154a49.497 49.497 0 0 0 3.122 2.3c1.113.766 2.24 1.422 3.36 2.042.558.306 1.111.593 1.647.858l.793.381q.383.171.75.323c1.952.811 3.484 1.211 3.9 1s1.028-1.913 1.557-4.235a45.63 45.63 0 0 0 .63-3.955q.061-.529.113-1.068a53.502 53.502 0 0 0 .154-3.329c.011-.736.01-1.458-.018-2.176s-.078-1.429-.137-2.1a34.386 34.386 0 0 0-.494-3.635c-.429-2.125-.94-3.485-1.317-3.532a2.72 2.72 0 0 0-1.465.441 9.23 9.23 0 0 0-1.773 1.18c-.142.119-.28.242-.412.368s-.272.238-.4.36a6.058 6.058 0 0 0-.663.746 2.034 2.034 0 0 0-.509 1.4c.134.8.646 3.49.984 6.067.173 1.281.291 2.5.377 3.414s.126 1.514.126 1.514c-.262.575-.985.561-1.953.124a18.214 18.214 0 0 1-3.28-2.076 45.978 45.978 0 0 1-1.686-1.336l-1.518-1.244c-.922-.737-1.634-1.24-1.987-1.182a13.968 13.968 0 0 0-2.913.747c-1.023.337-1.86.822-1.856 1.416z"/>
        <path data-name="Path 12" d="M120.95 102.232c.212.5 1.727.765 3.854.667a31.219 31.219 0 0 0 3.653-.388 48.053 48.053 0 0 0 4.142-.927c1.4-.4 2.787-.873 4.118-1.373.673-.247 1.284-.519 1.884-.783s1.164-.532 1.69-.79 1.018-.505 1.443-.741.788-.458 1.1-.652a3.708 3.708 0 0 0 1.02-.778 2.186 2.186 0 0 0-.377-.966c-.139-.256-.308-.552-.517-.885s-.459-.7-.731-1.091a48.708 48.708 0 0 0-4.287-5.32c-.844-.912-1.687-1.79-2.546-2.6s-1.7-1.555-2.457-2.19-1.418-1.166-1.974-1.57a13.056 13.056 0 0 0-1.192-.8.752.752 0 0 0-1.066.34 5.249 5.249 0 0 0-.648 1.729 10.209 10.209 0 0 0-.167 1.075c-.042.361-.092.712-.108 1.043a4.014 4.014 0 0 0 .125 1.529 7.055 7.055 0 0 0 1.271 1.48c.658.649 1.49 1.42 2.3 2.179l1.176 1.1.981.945.943.916-1.61.524c-.488.154-1.037.338-1.663.519l-1.958.56-1.972.556-1.809.5a5.593 5.593 0 0 0-2.114.874c-.236.269-.563.634-.892 1.06-.165.213-.332.44-.493.677s-.311.485-.472.725a5.278 5.278 0 0 0-.685 1.483 2.561 2.561 0 0 0-.086.721 1.638 1.638 0 0 0 .124.652z"/>
        <path data-name="Path 13" d="M.878 62.978c.209-.146.677-.454 1.351-.864.69-.407 1.582-.916 2.606-1.464a65.176 65.176 0 0 1 7.284-3.34 60.424 60.424 0 0 1 7.387-2.285c1.045-.249 1.942-.433 2.627-.56s1.185-.187 1.386-.2c.416-.029-.309-1.066-1.583-2.745-.636-.841-1.357-1.824-2.162-2.929s-1.668-2.321-2.47-3.554-1.625-2.523-2.372-3.76a108.837 108.837 0 0 1-3.25-5.946 39.686 39.686 0 0 1-.472-.967l-.154.213c-.1.136-.242.33-.4.58a87.19 87.19 0 0 0-1.189 1.888c-.216.362-.451.726-.646 1.1s-.384.741-.551 1.085a8.676 8.676 0 0 0-.655 1.63 4.724 4.724 0 0 0 1.066 2.258 36.935 36.935 0 0 0 2.682 3.439c1.013 1.16 2.076 2.246 2.869 3.027s1.335 1.275 1.335 1.275-.691.021-1.756.1-2.465.227-3.937.458a31.189 31.189 0 0 0-4.212.926 5.8 5.8 0 0 0-2.444 1.2c-.641.78-1.3 3.138-1.748 5.3a74.3 74.3 0 0 0-.466 2.882c-.061.38-.074.7-.1.915z"/>
        <path data-name="Path 14" d="M23.686 19.219c.012.183.4.369 1.055.562s1.6.4 2.717.65l3.761.811c1.379.327 2.825.686 4.244 1.064 2.874.794 5.645 1.708 7.8 2.538 2.128.782 3.661 1.472 4.091 1.537.217.038.411-.278.595-.868a23.319 23.319 0 0 0 .586-2.452l.317-1.691c.109-.609.24-1.221.368-1.882l.409-2.042c.142-.7.287-1.427.451-2.127l.978-4.225c.327-1.355.648-2.613.895-3.724.5-2.215.706-3.77.181-3.892a6.236 6.236 0 0 0-3.653.552 6.078 6.078 0 0 0-2.672 2.165 11.146 11.146 0 0 0-.639 2.608c-.2 1.237-.37 2.7-.46 4.137-.181 2.891-.1 5.487-.1 5.487l-3.862-1.643c-1.169-.512-2.5-1.051-3.932-1.664s-2.958-1.291-4.408-1.972c-.394-.188-1.161.065-2.094.556a11.863 11.863 0 0 0-1.462.925c-.5.358-1.02.75-1.523 1.147s-.967.831-1.406 1.225-.831.776-1.166 1.1l-.454.444-.332.358z"/>
        <path data-name="Path 15" d="M70.962 1.734c-.239.319.582 1.581 1.847 3.3l1.02 1.367c.361.479.74 1.011 1.127 1.539.775 1.067 1.585 2.179 2.37 3.3a271.518 271.518 0 0 1 2.246 3.354 54.2 54.2 0 0 1 1 1.562l.893 1.414c.279.437.538.837.777 1.191s.453.69.647.955c.388.539.692.86.9.9s.586-.177 1.109-.579c.518-.385 1.177-.94 1.952-1.625 1.553-1.4 3.552-3.143 5.681-4.939 1.052-.868 2.124-1.727 3.153-2.552l2.844-2.265c1.681-1.347 2.832-2.382 2.758-2.816-.144-.851-1.647-2.111-3.357-2.9-1.685-.854-3.535-1.246-4.128-.832a32.6 32.6 0 0 0-3.719 5c-.773 1.148-1.54 2.285-2.211 3.162a4.666 4.666 0 0 1-1.672 1.607c-.423.116-.847-.509-1.309-1.522-.23-.507-.471-1.11-.723-1.767s-.526-1.349-.8-2.039a39.539 39.539 0 0 0-1.735-3.915c-.584-1.094-1.155-1.8-1.61-1.84S78.828.703 77.96.657c-.869-.027-1.867 0-2.835.039-.484.03-.96.044-1.408.116s-.869.141-1.243.23a2.818 2.818 0 0 0-1.512.692z"/>
        <path data-name="Path 16" d="M118.427 16.332c-.354.2-.646 1.677-.959 3.72l-.538 3.453c-.1.609-.2 1.243-.3 1.892s-.209 1.277-.333 1.931c-.24 1.3-.488 2.571-.724 3.75-.114.585-.239 1.163-.361 1.711s-.228 1.051-.333 1.539c-.2.955-.355 1.748-.442 2.347s-.1 1 .009 1.128.541.185 1.221.2c.339.007.746 0 1.2-.01l1.49-.025 1.762-.042c.626-.015 1.3-.034 1.962-.028 1.348 0 2.8.014 4.283.047 1.445.055 2.913.13 4.31.207l1.032.058.975.069 1.8.119c2.252.134 3.818.129 3.892-.31a4.281 4.281 0 0 0-.4-1.958c-.157-.409-.353-.844-.575-1.286s-.509-.869-.792-1.292c-1.112-1.713-2.6-3.089-3.466-3.02-.439.035-1.365.143-2.5.32a82.548 82.548 0 0 0-7.165 1.498l-1.471.4c-1.218-.25-.3-2.833.561-5.632.444-1.4.925-2.881 1.189-4.084a4.135 4.135 0 0 0 .085-2.543 13.337 13.337 0 0 0-1.123-1.4 21.055 21.055 0 0 0-1.559-1.507c-.272-.234-.54-.453-.8-.64a6.532 6.532 0 0 0-.772-.448 1.322 1.322 0 0 0-1.158-.164z"/>
        <path data-name="Path 17" d="M127.623 66.421c.3.129 1.533-.621 3.205-1.995a42.499 42.499 0 0 0 2.675-2.487c.473-.48.981-1 1.447-1.528s.946-1.088 1.417-1.661.938-1.163 1.394-1.762.863-1.2 1.274-1.8.8-1.2 1.167-1.781.716-1.156 1.011-1.694a22.624 22.624 0 0 0 2.086-4.451c.047-.266-.283-.627-.895-1.034a10.969 10.969 0 0 0-1.112-.639 14.939 14.939 0 0 0-1.475-.658 36.284 36.284 0 0 0-3.744-1.212 41.994 41.994 0 0 0-4.319-.862 37.185 37.185 0 0 0-4.3-.386 29.959 29.959 0 0 0-3.709.071c-2.182.191-3.6.583-3.659 1.022a2.968 2.968 0 0 0 .182 1.346 5.228 5.228 0 0 0 .661 1.3 4.866 4.866 0 0 0 .993 1.039 2.971 2.971 0 0 0 1.088.61 15.743 15.743 0 0 0 2.476.179c.6.016 1.25.039 1.924.069l2.086.1c1.4.077 2.785.167 3.785.262l1.663.165s-.2.39-.572 1.034c-.185.322-.415.706-.683 1.136s-.577.9-.944 1.411a36.8 36.8 0 0 1-2.586 3.226 29.5 29.5 0 0 1-3.34 3.135 1 1 0 0 0-.309.627 2.878 2.878 0 0 0-.038.465 5.022 5.022 0 0 0 0 .549 10.474 10.474 0 0 0 .139 1.26c.072.444.181.9.25 1.364s.174.911.269 1.33.2.806.256 1.142c.132.669.237 1.108.237 1.108z"/>
        <path data-name="Path 18" d="M111.877 31.533c.356-.106.791-1.425 1.121-3.455a34.442 34.442 0 0 0 .312-2.561c.026-.31.041-.618.056-.938.062-1.28.072-2.67.02-4.094a50.478 50.478 0 0 0-.406-4.183c-.091-.692-.217-1.338-.346-1.968s-.271-1.233-.417-1.8-.3-1.1-.453-1.577-.327-.885-.487-1.244a3.189 3.189 0 0 0-.878-1.341 2.588 2.588 0 0 0-1.541.011 19.335 19.335 0 0 0-2.76.857c-.528.2-1.082.43-1.652.685s-1.17.562-1.767.874c-1.2.632-2.4 1.313-3.569 2.086a39.186 39.186 0 0 0-5.935 4.729c-1.488 1.469-2.361 2.635-2.315 3.048a2.4 2.4 0 0 0 .792 1.292 6.339 6.339 0 0 0 .744.614c.271.2.552.406.846.581a7.077 7.077 0 0 0 1.725.779 1.489 1.489 0 0 0 1.243 0 15.388 15.388 0 0 0 1.57-1.631c.737-.821 1.652-1.846 2.595-2.805 1.885-1.935 3.979-3.725 4.89-3.666.446.039.68.8.766 1.9a24.917 24.917 0 0 1-.11 4.037c-.134 1.478-.321 2.949-.412 4.09a12.641 12.641 0 0 0-.048 1.448c.021.38.09.639.231.739.283.2.742.528 1.293.9.534.391 1.148.837 1.775 1.236l.471.292c.151.1.3.2.448.29a9.006 9.006 0 0 0 .854.477 2.124 2.124 0 0 0 1.344.298z"/>
        <path data-name="Path 19" d="M75.796 17.575c.127-.375-.326-1.727-1.215-3.55a33.335 33.335 0 0 0-1.648-2.964A50.14 50.14 0 0 0 70.76 7.83a47.201 47.201 0 0 0-3.744-4.41 27.362 27.362 0 0 0-1.215-1.168C64.235.832 62.924-.08 62.468.004s-1.613 1.449-2.891 3.463a46.261 46.261 0 0 0-1.922 3.513q-.236.478-.465.968a55.448 55.448 0 0 0-1.261 3.086c-.258.69-.5 1.373-.712 2.054s-.4 1.374-.574 2.03a35.236 35.236 0 0 0-.75 3.587c-.3 2.149-.275 3.6.064 3.772a2.716 2.716 0 0 0 1.524.072 8.8 8.8 0 0 0 2.061-.515c.173-.064.343-.138.51-.207s.336-.133.5-.206a5.967 5.967 0 0 0 .872-.481 2.023 2.023 0 0 0 .948-1.152c.144-.8.561-3.5 1.107-6.042.266-1.276.563-2.449.792-3.345s.39-1.466.39-1.466c.439-.453 1.117-.191 1.881.533a18.322 18.322 0 0 1 2.393 3.065c.4.6.777 1.213 1.139 1.812l1.014 1.686c.623 1.008 1.126 1.724 1.479 1.79.176.033.385.063.615.09s.484.075.748.1a12.134 12.134 0 0 0 1.642.075 7.088 7.088 0 0 0 1.447-.149 1.034 1.034 0 0 0 .777-.562z"/>
        <path data-name="Path 20" d="M39.471 30.207c-.018-.276-.359-.593-.953-.926a9.955 9.955 0 0 0-1.076-.508 17.962 17.962 0 0 0-1.388-.481 33.151 33.151 0 0 0-3.576-.849c-1.312-.22-2.74-.387-4.209-.5s-2.918-.106-4.34-.08c-.352.009-.708.016-1.046.035l-.994.07a51.083 51.083 0 0 0-3.463.395c-.487.074-.9.167-1.249.247a3.7 3.7 0 0 0-1.22.392 2.2 2.2 0 0 0 .034 1.036c.045.287.108.625.19 1.005s.2.813.324 1.272a49.273 49.273 0 0 0 2.257 6.448c.491 1.143.984 2.249 1.528 3.307s1.079 2.035 1.574 2.886a25.159 25.159 0 0 0 2.19 3.3c.684.746 1.535-.181 2.308-1.374a10.311 10.311 0 0 0 .521-.955c.153-.331.325-.642.45-.949a4.038 4.038 0 0 0 .4-1.483 7.036 7.036 0 0 0-.7-1.822c-.4-.832-.927-1.838-1.437-2.825l-.737-1.433-.608-1.22-.582-1.179 1.691.044c1 .019 2.392.1 3.774.193l2.043.132c.671.052 1.311.1 1.876.135a5.761 5.761 0 0 0 2.287-.12c.316-.171.742-.412 1.194-.706s.92-.652 1.382-1a3.335 3.335 0 0 0 1.555-2.487z"/>
    </g>
</svg>
