<svg xmlns="http://www.w3.org/2000/svg" width="40.498" height="308.659" viewBox="0 0 40.498 308.659">
  <g id="bg-line" transform="translate(-120.21 7.44)" opacity="0.1">
    <g id="bg-line-2" data-name="bg-line" transform="translate(34.379 129.322)">
      <rect id="Rectangle_80" data-name="Rectangle 80" width="25.829" height="184.288" transform="translate(93.165 -19.858)" stroke="rgba(0,0,0,0)" stroke-width="1"/>
      <path id="Path_586" data-name="Path 586" d="M1199.166,390.758h0l-6.834-6.927v13.853Z" transform="translate(-1106 -338.375)" stroke="rgba(0,0,0,0)" stroke-width="1"/>
      <path id="Path_587" data-name="Path 587" d="M1199.166,472.429h0l-6.834-6.927v13.853Z" transform="translate(-1106 -406.148)" stroke="rgba(0,0,0,0)" stroke-width="1"/>
      <path id="Path_588" data-name="Path 588" d="M1199.166,554h0l-6.834-6.927v13.853Z" transform="translate(-1106 -473.843)" stroke="rgba(0,0,0,0)" stroke-width="1"/>
      <path id="Path_589" data-name="Path 589" d="M1199.166,635.58h0l-6.834-6.927v13.853Z" transform="translate(-1106 -541.537)" stroke="rgba(0,0,0,0)" stroke-width="1"/>
      <path id="Path_590" data-name="Path 590" d="M1199.166,717.156h0l-6.834-6.927v13.853Z" transform="translate(-1106 -609.232)" stroke="rgba(0,0,0,0)" stroke-width="1"/>
      <path id="Path_591" data-name="Path 591" d="M1384.282,392.442h0l6.834-6.927v13.853Z" transform="translate(-1265.288 -339.772)" stroke="rgba(0,0,0,0)" stroke-width="1"/>
      <path id="Path_592" data-name="Path 592" d="M1384.282,474.112h0l6.834-6.927v13.853Z" transform="translate(-1265.288 -407.545)" stroke="rgba(0,0,0,0)" stroke-width="1"/>
      <path id="Path_593" data-name="Path 593" d="M1384.282,555.688h0l6.834-6.927v13.853Z" transform="translate(-1265.288 -475.24)" stroke="rgba(0,0,0,0)" stroke-width="1"/>
      <path id="Path_594" data-name="Path 594" d="M1384.282,637.264h0l6.834-6.927V644.19Z" transform="translate(-1265.288 -542.934)" stroke="rgba(0,0,0,0)" stroke-width="1"/>
      <path id="Path_595" data-name="Path 595" d="M1384.282,718.839h0l6.834-6.927v13.853Z" transform="translate(-1265.288 -610.629)" stroke="rgba(0,0,0,0)" stroke-width="1"/>
      <path id="Path_596" data-name="Path 596" d="M1199.166-17h0l-6.834-6.927v13.853Z" transform="translate(-1106)" stroke="rgba(0,0,0,0)" stroke-width="1"/>
      <path id="Path_597" data-name="Path 597" d="M1199.166,64.667h0l-6.834-6.927V71.593Z" transform="translate(-1106 -67.773)" stroke="rgba(0,0,0,0)" stroke-width="1"/>
      <path id="Path_598" data-name="Path 598" d="M1199.166,146.243h0l-6.834-6.927v13.853Z" transform="translate(-1106 -135.467)" stroke="rgba(0,0,0,0)" stroke-width="1"/>
      <path id="Path_599" data-name="Path 599" d="M1199.166,227.818h0l-6.834-6.927v13.853Z" transform="translate(-1106 -203.162)" stroke="rgba(0,0,0,0)" stroke-width="1"/>
      <path id="Path_600" data-name="Path 600" d="M1199.166,309.394h0l-6.834-6.927v13.853Z" transform="translate(-1106 -270.856)" stroke="rgba(0,0,0,0)" stroke-width="1"/>
      <path id="Path_601" data-name="Path 601" d="M1384.282-15.32h0l6.834-6.927V-8.393Z" transform="translate(-1265.288 -1.397)" stroke="rgba(0,0,0,0)" stroke-width="1"/>
      <path id="Path_602" data-name="Path 602" d="M1384.282,66.35h0l6.834-6.927V73.277Z" transform="translate(-1265.288 -69.17)" stroke="rgba(0,0,0,0)" stroke-width="1"/>
      <path id="Path_603" data-name="Path 603" d="M1384.282,147.926h0l6.834-6.927v13.853Z" transform="translate(-1265.288 -136.864)" stroke="rgba(0,0,0,0)" stroke-width="1"/>
      <path id="Path_604" data-name="Path 604" d="M1384.282,229.5h0l6.834-6.927v13.853Z" transform="translate(-1265.288 -204.559)" stroke="rgba(0,0,0,0)" stroke-width="1"/>
      <path id="Path_605" data-name="Path 605" d="M1384.282,311.078h0l6.834-6.927V318Z" transform="translate(-1265.288 -272.253)" stroke="rgba(0,0,0,0)" stroke-width="1"/>
      <path id="Path_606" data-name="Path 606" d="M1199.166,798.732h0l-6.834-6.927v13.853Z" transform="translate(-1106 -676.926)" stroke="rgba(0,0,0,0)" stroke-width="1"/>
      <path id="Path_607" data-name="Path 607" d="M1199.166,880.4h0l-6.834-6.927v13.853Z" transform="translate(-1106 -744.699)" stroke="rgba(0,0,0,0)" stroke-width="1"/>
      <path id="Path_608" data-name="Path 608" d="M1199.166,961.978h0l-6.834-6.927V968.9Z" transform="translate(-1106 -812.394)" stroke="rgba(0,0,0,0)" stroke-width="1"/>
      <path id="Path_609" data-name="Path 609" d="M1199.166,1043.553h0l-6.834-6.927v13.853Z" transform="translate(-1106 -880.088)" stroke="rgba(0,0,0,0)" stroke-width="1"/>
      <path id="Path_610" data-name="Path 610" d="M1384.282,800.415h0l6.834-6.927v13.853Z" transform="translate(-1265.288 -678.323)" stroke="rgba(0,0,0,0)" stroke-width="1"/>
      <path id="Path_611" data-name="Path 611" d="M1384.282,882.085h0l6.834-6.927v13.853Z" transform="translate(-1265.288 -746.096)" stroke="rgba(0,0,0,0)" stroke-width="1"/>
      <path id="Path_612" data-name="Path 612" d="M1384.282,963.661h0l6.834-6.927v13.853Z" transform="translate(-1265.288 -813.791)" stroke="rgba(0,0,0,0)" stroke-width="1"/>
      <path id="Path_613" data-name="Path 613" d="M1384.282,1045.237h0l6.834-6.927v13.853Z" transform="translate(-1265.288 -881.485)" stroke="rgba(0,0,0,0)" stroke-width="1"/>
    </g>
    <g id="bg-line-3" data-name="bg-line" transform="translate(34.379 -51.678)">
      <rect id="Rectangle_80-2" data-name="Rectangle 80" width="25.829" height="109.751" transform="translate(93.165 51.678)" stroke="rgba(0,0,0,0)" stroke-width="1"/>
      <path id="Path_586-2" data-name="Path 586" d="M1199.166,390.758h0l-6.834-6.927v13.853Z" transform="translate(-1106 -338.375)" stroke="rgba(0,0,0,0)" stroke-width="1"/>
      <path id="Path_587-2" data-name="Path 587" d="M1199.166,472.429h0l-6.834-6.927v13.853Z" transform="translate(-1106 -406.148)" stroke="rgba(0,0,0,0)" stroke-width="1"/>
      <path id="Path_588-2" data-name="Path 588" d="M1199.166,554h0l-6.834-6.927v13.853Z" transform="translate(-1106 -473.843)" stroke="rgba(0,0,0,0)" stroke-width="1"/>
      <path id="Path_589-2" data-name="Path 589" d="M1199.166,635.58h0l-6.834-6.927v13.853Z" transform="translate(-1106 -541.537)" stroke="rgba(0,0,0,0)" stroke-width="1"/>
      <path id="Path_590-2" data-name="Path 590" d="M1199.166,717.156h0l-6.834-6.927v13.853Z" transform="translate(-1106 -609.232)" stroke="rgba(0,0,0,0)" stroke-width="1"/>
      <path id="Path_591-2" data-name="Path 591" d="M1384.282,392.442h0l6.834-6.927v13.853Z" transform="translate(-1265.288 -339.772)" stroke="rgba(0,0,0,0)" stroke-width="1"/>
      <path id="Path_592-2" data-name="Path 592" d="M1384.282,474.112h0l6.834-6.927v13.853Z" transform="translate(-1265.288 -407.545)" stroke="rgba(0,0,0,0)" stroke-width="1"/>
      <path id="Path_593-2" data-name="Path 593" d="M1384.282,555.688h0l6.834-6.927v13.853Z" transform="translate(-1265.288 -475.24)" stroke="rgba(0,0,0,0)" stroke-width="1"/>
      <path id="Path_594-2" data-name="Path 594" d="M1384.282,637.264h0l6.834-6.927V644.19Z" transform="translate(-1265.288 -542.934)" stroke="rgba(0,0,0,0)" stroke-width="1"/>
      <path id="Path_595-2" data-name="Path 595" d="M1384.282,718.839h0l6.834-6.927v13.853Z" transform="translate(-1265.288 -610.629)" stroke="rgba(0,0,0,0)" stroke-width="1"/>
      <path id="Path_606-2" data-name="Path 606" d="M1199.166,798.732h0l-6.834-6.927v13.853Z" transform="translate(-1106 -676.926)" stroke="rgba(0,0,0,0)" stroke-width="1"/>
      <path id="Path_607-2" data-name="Path 607" d="M1199.166,880.4h0l-6.834-6.927v13.853Z" transform="translate(-1106 -744.699)" stroke="rgba(0,0,0,0)" stroke-width="1"/>
      <path id="Path_608-2" data-name="Path 608" d="M1199.166,961.978h0l-6.834-6.927V968.9Z" transform="translate(-1106 -812.394)" stroke="rgba(0,0,0,0)" stroke-width="1"/>
      <path id="Path_610-2" data-name="Path 610" d="M1384.282,800.415h0l6.834-6.927v13.853Z" transform="translate(-1265.288 -678.323)" stroke="rgba(0,0,0,0)" stroke-width="1"/>
      <path id="Path_611-2" data-name="Path 611" d="M1384.282,882.085h0l6.834-6.927v13.853Z" transform="translate(-1265.288 -746.096)" stroke="rgba(0,0,0,0)" stroke-width="1"/>
      <path id="Path_612-2" data-name="Path 612" d="M1384.282,963.661h0l6.834-6.927v13.853Z" transform="translate(-1265.288 -813.791)" stroke="rgba(0,0,0,0)" stroke-width="1"/>
    </g>
  </g>
</svg>
