<svg xmlns="http://www.w3.org/2000/svg" width="121.954" height="119.277" viewBox="0 0 121.954 119.277">
  <g id="bg-serv-hv" transform="translate(-135 -257)">
    <g id="Group_81" data-name="Group 81" transform="translate(-1374.555 168.932)">
      <path id="Path_546" data-name="Path 546" d="M1713.205,197.38h0l20.287-20.017h-40.575Z" transform="translate(-102.002 -49.673)" fill="#852023"/>
      <path id="Path_548" data-name="Path 548" d="M1529.842,197.38h0l20.288-20.017h-40.575Z" transform="translate(0 -49.673)" fill="#852023"/>
      <path id="Path_549" data-name="Path 549" d="M1667.285,152.267h0l20.288-20.017H1647Z" transform="translate(-76.457 -24.577)" fill="#852023"/>
      <path id="Path_550" data-name="Path 550" d="M1575.656,152.267h0l20.288-20.017h-40.575Z" transform="translate(-25.486 -24.577)" fill="#852023"/>
      <path id="Path_551" data-name="Path 551" d="M1621.563,108.086h0l20.287-20.017h-40.575Z" transform="translate(-51.023 0)" fill="#852023"/>
      <g id="Group_80" data-name="Group 80" transform="translate(1509.573 147.707)">
        <path id="Path_552" data-name="Path 552" d="M1713.245,222.476h0l20.288,20.017h-40.575Z" transform="translate(-1611.596 -222.476)" fill="#852023"/>
        <path id="Path_554" data-name="Path 554" d="M1529.882,222.476h0l20.288,20.017h-40.575Z" transform="translate(-1509.595 -222.476)" fill="#852023"/>
        <path id="Path_555" data-name="Path 555" d="M1667.325,267.589h0l20.287,20.017h-40.575Z" transform="translate(-1586.052 -247.572)" fill="#852023"/>
        <path id="Path_556" data-name="Path 556" d="M1575.7,267.589h0l20.288,20.017h-40.575Z" transform="translate(-1535.08 -247.572)" fill="#852023"/>
        <path id="Path_557" data-name="Path 557" d="M1621.6,311.77h0l20.287,20.017h-40.575Z" transform="translate(-1560.618 -272.149)" fill="#852023"/>
      </g>
    </g>
  </g>
</svg>
