<svg xmlns="http://www.w3.org/2000/svg" width="836.861" height="841.226" >
    
    <defs>
        <style>
            .cls-1{fill:#f98e10}.cls-2{fill:#0a4b47}
        </style>
    </defs>
    <g id="Group_1351" data-name="Group 1351" transform="rotate(2 310.235 466.967)">
        <path id="Path_2" data-name="Path 2" class="cls-1" d="M110.363 46.967c-.141-1-1.166-2.434-2.853-4.146A64.992 64.992 0 0 0 100.474 37a210.262 210.262 0 0 0-20.837-13.2c-7.457-4.241-15.182-8-20.913-10.661S49.183 8.88 49.183 8.88 58.114 5.4 69.234 0h-58.2C5.645 3.149 1.857 5.146.447 5.752c-2.173.939 3.77 5.113 13.659 11.653L31.135 28.9a711.347 711.347 0 0 1 9.861 6.854 724.411 724.411 0 0 1 9.975 7.365c6.69 5.042 13.5 10.338 19.744 15.491a614.667 614.667 0 0 1 16.761 14.545c4.879 4.4 9.031 8.23 11.779 10.907l4.342 4.247s.148-.514.416-1.425c.244-.917.68-2.216 1.047-3.835.754-3.231 1.75-7.632 2.714-12.3.48-2.329.954-4.727 1.385-7.072.341-2.358.621-4.669.849-6.811a48.857 48.857 0 0 0 .355-9.899z" transform="translate(721.369 413.183)"/>
        <path id="Path_3" data-name="Path 3" class="cls-1" d="M98.826 54.609c.864-2.665 1.167-7.442 1.117-13.105-.218-5.647-.959-12.166-1.744-18.343-.345-3.1-.938-6.072-1.478-8.818-.557-2.742-1.064-5.251-1.5-7.381L93.7 0a346.033 346.033 0 0 1-37.67 40.851C51.327 45.32 46.107 49.773 41 54c-5.125 4.229-10.193 8.23-15.091 11.89C15.8 73.235 6.638 79.179 0 83.189h58.2a232 232 0 0 0 25.894-14.832 84.3 84.3 0 0 0 9.959-7.645c2.536-2.367 4.247-4.481 4.773-6.103z" transform="translate(732.403 329.994)"/>
        <path id="Path_4" data-name="Path 4" class="cls-1" d="M140.953 1.075c-.405-.954-2.8-1.219-6.675-1.007s-9.187.9-15.653 1.668c-6.178.782-13.54 1.712-21.573 2.73-7.863.9-16.324 1.644-24.585 2.293l-6.186.452q-3.13.143-6.254.29c-4.137.175-8.187.308-12.1.4-3.927.08-7.627.199-11.312.151l-10.379-.166c-6.5-.169-11.889-.268-16.209-.474a59.584 59.584 0 0 0-8.452-.028c-2.487.4-1.656 8.224-.059 19.9C3.344 39.141 5.748 54.9 7.851 71.4c.957 8.454 1.893 16.724 2.748 24.292.855 7.867 1.486 15.121 2.284 21.5 1.531 12.708 3.37 21.36 6.389 21.021 5.968-.668 12.9-4.62 18.353-9.815 5.352-5.321 9.39-11.6 10.12-16.521.329-2.505-.271-8.153-1.52-15.069a230.009 230.009 0 0 0-2.309-11.1c-.468-1.933-.945-3.891-1.422-5.851a285.488 285.488 0 0 0-1.631-5.928c-4.449-15.7-9.76-29.343-9.76-29.343s2.426.138 6.483.372c4.271.277 10.261.668 17.146 1.114l5.555.379 5.842.32 12.638.776c4.385.293 8.919.622 13.511 1.009 4.533.345 9.086.72 13.631 1.207 2.45.264 6.076-2.512 10.129-6.861 3.964-4.407 8.1-10.545 12.01-16.632 3.712-6.21 6.937-12.529 9.329-17.22 1.222-2.33 2-4.386 2.64-5.771z" transform="translate(646.16 604.597)"/>
        <path id="Path_5" data-name="Path 5" class="cls-1" d="M169.236 76.294c.667-2.161-6.082-7.285-16.042-13.985q-1.846-1.234-3.871-2.583c-1.335-.914-2.728-1.865-4.165-2.847l-8.891-6.045c-6.119-4.161-12.486-8.467-18.829-13.158-3.091-2.268-6.211-4.561-9.323-6.845-3.047-2.268-5.992-4.408-8.883-6.713L83.606 11.883C74.379 4.53 67.878-.437 65.542.031c-2.342.43-6.515 7.115-12.188 17.444l-2.2 4.016-2.354 4.155c-1.651 2.921-3.353 5.944-5.085 9.018-3.542 6.249-7.38 13.136-11.36 19.636l-11.97 19.627c-4.044 6.457-7.737 12.36-10.843 17.319C3.15 101.63-1 109.337.21 111.495c1.192 2.154 4.355 4.1 8.557 5.694a56.527 56.527 0 0 0 14.693 3.389 71.788 71.788 0 0 0 14.795.114c4.254-.536 7.47-1.807 8.667-3.459 2.407-3.37 6.494-18.581 10.4-33.514 3.967-15.179 7.67-30.1 11.73-32.753 2.056-1.268 5.468 1.21 9.812 5.676S88.5 67.585 94.091 74.121a212.675 212.675 0 0 0 16.543 17.454c5.135 4.626 9.6 7.663 12.063 6.9 2.483-.7 6.518-1.837 11.221-3.281 2.342-.745 4.881-1.465 7.417-2.428s5.121-1.994 7.648-3.059c10.192-4.081 19.077-9.581 20.253-13.413z" transform="translate(399.388 711.437)"/>
        <path id="Path_6" data-name="Path 6" class="cls-1" d="M147.075 121.877c1.5-1.746.27-10.144-1.928-21.609-1.123-5.657-2.342-12.44-3.656-19.368-1.286-7-2.655-14.194-3.832-21.514-2.33-14.764-4.281-28.851-5.6-39.918-.705-5.463-1.357-10.019-2.05-13.312-.656-3.356-1.328-5.512-2.158-5.977S124.638.2 121 1.407c-1.815.6-3.946 1.385-6.352 2.305l-7.892 2.952c-5.728 2.142-12.465 4.767-19.7 7.374a1118.56 1118.56 0 0 1-22.853 7.728c-7.864 2.512-15.746 4.773-23.333 6.993-7.614 2.256-14.65 4.115-20.756 5.863C7.9 38.119-.41 41.077.016 43.558c.406 2.462 2.573 5.928 5.764 9.694a60.353 60.353 0 0 0 5.492 5.734c2.083 1.849 4.324 3.681 6.623 5.4s4.656 3.337 6.964 4.759a45.776 45.776 0 0 0 6.83 3.4c4.337 1.748 8.036 2.419 10.3 1.422 2.283-1.028 6.949-3.253 12.748-6.435 5.776-3.132 12.513-7.007 18.812-10.844 6.324-3.86 12.142-7.562 16.506-10.557 4.3-2.967 7.07-4.885 7.07-4.885 3.484-.443 5.2 3.146 6.125 8.993s1.219 13.681 1.456 22.046c.27 8.279.47 17.122 1.366 23.951.853 6.9 2.2 12.17 4.334 13.715a66.044 66.044 0 0 0 8.629 5.328 119.375 119.375 0 0 0 11.146 5.112 39.162 39.162 0 0 0 10.455 2.8c3.01.327 5.33-.009 6.439-1.314z" transform="translate(141.543 677.657)"/>
        <path id="Path_7" data-name="Path 7" class="cls-1" d="M54.61 160.787c3.4.723 7.759-7.285 12.822-19.012 2.37-5.632 5.225-12.422 8.353-19.854 1.5-3.521 3.059-7.2 4.66-10.96l2.38-5.537q1.273-2.779 2.567-5.589l5.115-10.917c1.7-3.558 3.3-6.978 5.084-10.344 3.46-6.694 6.7-12.764 9.464-17.906 5.888-10.418 9.8-17.171 9.473-18.094-.39-.9-6.515-2.795-15.988-5.66-4.694-1.447-10.378-3.105-16.254-5.085s-12.222-4.2-18.7-6.6c-3.216-1.2-6.543-2.425-9.713-3.706-3.183-1.317-6.329-2.622-9.39-3.89a785.228 785.228 0 0 1-17.427-7.645C16.55 5.154 8.668 1.165 5.846.245 3.055-.688 1.407 1.109.6 4.5a36.829 36.829 0 0 0 .064 13.651 95.354 95.354 0 0 0 3.684 15.537c1.7 4.635 3.511 8.35 4.979 9.981s5.469 3.641 10.624 5.6a176.81 176.81 0 0 0 17.95 5.3 276.775 276.775 0 0 0 16.644 3.508c2.2.4 4.06.693 5.365.884l2.035.3S59.756 62.3 56.55 67.2c-1.6 2.45-3.463 5.365-5.426 8.593l-3.007 5.056a223.402 223.402 0 0 0-2.893 5.34 188.055 188.055 0 0 0-10 21.907c-2.339 6.682-3.6 12.265-3.01 14.847a105.415 105.415 0 0 0 7.641 21.982q.711 1.491 1.471 2.93a62.374 62.374 0 0 0 1.687 2.724 42.529 42.529 0 0 0 3.614 4.8c2.51 2.829 5.198 4.826 7.983 5.408z" transform="translate(11.156 463.327)"/>
        <path id="Path_8" data-name="Path 8" class="cls-2" d="M119.845 0c-1.256.467-3.958 1.477-7.74 2.89a532.48 532.48 0 0 0-14.262 5.789 394.293 394.293 0 0 0-39.38 19.4 443.7 443.7 0 0 0-37.832 24.283C10.178 59.868 2.4 65.833.409 67.138c-2.093 1.3 4.007 7.125 14.348 14.315A207.549 207.549 0 0 0 33.31 92.816c7.021 3.862 14.442 7.688 22.191 11.178a350.787 350.787 0 0 0 43.326 16.2 394.203 394.203 0 0 0 14.518 4.051l5.5 1.376s-.545-6.232-1.527-13.077c-.418-3.438-.708-7.069-1.234-10.163a31.564 31.564 0 0 0-1.763-7.051c-.631-1.382-5.029-3.361-11.295-5.777-6.242-2.407-14.466-5.269-22.419-8.221-15.791-5.842-31.34-12.12-31.34-12.12s3.474-1.61 8.913-4.124c5.5-2.474 12.881-5.734 20.39-9l11.148-4.866c3.5-1.567 6.928-3.1 10.141-4.536 6.207-2.847 10.783-5.278 11.985-7.116 2.24-3.705 4.028-13.588 5.311-22.572a246.878 246.878 0 0 0 1.85-11.865c.172-1.579.453-2.85.6-3.743z" transform="translate(0 348.116)"/>
        <path id="Path_9" data-name="Path 9" class="cls-2" d="M47.278 0c-1.85-.114-6.953 6.2-13.231 16.657-3.078 5.2-6.256 11.36-9.522 18.3-1.606 3.453-3.284 7.131-4.808 10.871-1.5 3.718-2.963 7.574-4.375 11.511s-2.777 7.956-4.066 12-2.334 7.982-3.39 11.952a351.034 351.034 0 0 0-2.841 11.671q-.617 2.863-1.215 5.608-.49 2.719-.958 5.3C.533 117.63-.415 128.529.167 131.45c.246 1.505 2.678 2.8 6.686 3.817a62.412 62.412 0 0 0 7.109 1.3c1.357.176 2.782.339 4.294.462q2.3.152 4.8.237a205.958 205.958 0 0 0 22.161-.579c8.041-.739 16.457-1.97 24.6-3.54 2.041-.4 4.047-.8 6.072-1.259q3.057-.715 6.039-1.489c3.97-1.031 7.821-2.13 11.491-3.275s7.163-2.336 10.427-3.545 6.4-2.551 9.2-3.807c11.238-5.091 18.07-9.831 17.537-12.277-1.09-4.949-5.02-9.169-9.448-12.493a27.558 27.558 0 0 0-7.219-3.693 18.234 18.234 0 0 0-6.973-1.176c-4.229.3-20.048 6.045-35.167 10.323-7.574 2.225-15.078 4.305-20.646 5.743-5.561 1.37-9.147 2.25-9.147 2.25s.335-2.45 1.1-6.577c.8-4.155 1.908-9.861 3.844-16.614A209.386 209.386 0 0 1 54.6 63.2a166.309 166.309 0 0 1 11.817-22.987c2.344-3.927-2.9-13.607-8.286-22.637a166.954 166.954 0 0 0-3.971-6.552l-1.9-2.933-1.599-2.669C48.678 2.129 47.278 0 47.278 0z" transform="translate(97.943 550.262)"/>
        <path id="Path_10" data-name="Path 10" class="cls-2" d="M1.155 1.107c-1.693 1.231-1.533 9.07.532 20.5 1.988 11.591 6.3 26.136 12.259 41.1a282.015 282.015 0 0 0 10.077 21.479c1.794 3.509 3.684 6.713 5.568 9.812s3.773 6.036 5.629 8.768 3.669 5.26 5.4 7.522a76.915 76.915 0 0 0 4.942 5.71c3.065 3.2 5.593 5.155 7.215 5.441s4.487-.782 8.161-2.93a109.5 109.5 0 0 0 13.044-9.83c9.71-8.128 20.771-20.295 30.233-32.562 4.756-6.291 9.154-12.81 12.979-18.953a182.111 182.111 0 0 0 9.679-17.38c5.152-10.683 7.624-18.565 6.6-20.664-2.114-4.22-9.852-7.017-17.423-8.719-7.6-1.329-15.121-1.607-17.316 1.468-2.155 3-7.328 17.657-13.755 31.439a169.742 169.742 0 0 1-10.044 19.081c-3.342 5.26-6.559 9.1-9 9.683-2.447.643-5.128-2.933-7.686-8.646a138.857 138.857 0 0 1-7.058-21.67c-2.087-8.107-3.874-16.276-5.548-22.5a70.433 70.433 0 0 0-2.475-7.79c-.828-1.979-1.686-3.226-2.625-3.494-1.88-.536-4.933-1.4-8.55-2.311-3.575-1.051-7.669-2.289-11.753-3.224C16.125 1.588 12.213.489 8.831.166 5.467-.2 2.7 0 1.155 1.107z" transform="translate(293.621 705.22)"/>
        <path id="Path_11" data-name="Path 11" class="cls-2" d="M0 67.453c.037 2.247 4.958 8.553 13.093 16.515a207.254 207.254 0 0 0 6.685 6.239c2.419 2.176 5 4.377 7.686 6.51a275.863 275.863 0 0 0 17.617 12.975c6.279 4.325 12.637 8.027 18.962 11.523a248.235 248.235 0 0 0 9.3 4.844q2.281 1.1 4.473 2.148 2.164.965 4.231 1.822c11.012 4.576 19.661 6.835 21.984 5.626 2.272-1.293 5.8-10.8 8.787-23.9 1.4-6.71 2.625-14.352 3.555-22.317q.347-2.987.637-6.029c.169-2.059.3-4.158.422-6.245.234-4.183.385-8.384.443-12.536s.056-8.227-.1-12.277c-.178-4.087-.44-8.064-.775-11.871a193.492 193.492 0 0 0-2.786-20.513C111.787 7.978 108.907.305 106.78.038c-2.146-.247-5.1.735-8.267 2.49a52.05 52.05 0 0 0-10 6.657c-.8.671-1.579 1.366-2.327 2.078a48.762 48.762 0 0 0-2.247 2.035 33.924 33.924 0 0 0-3.74 4.21c-2.087 2.813-3.223 5.648-2.873 7.919.755 4.543 3.647 19.695 5.557 34.234.972 7.23 1.64 14.081 2.123 19.267l.711 8.541c-1.478 3.244-5.558 3.167-11.022.7-5.435-2.394-12.046-6.832-18.506-11.714a258.452 258.452 0 0 1-9.513-7.541c-3-2.456-5.887-4.823-8.562-7.017-5.2-4.161-9.22-7-11.212-6.67a78.673 78.673 0 0 0-16.439 4.214C4.7 61.362-.021 64.1 0 67.453z" transform="translate(513.1 645.212)"/>
        <path id="Path_12" data-name="Path 12" class="cls-2" d="M.73 120.2c1.2 2.816 9.744 4.315 21.745 3.761a176.157 176.157 0 0 0 20.615-2.188c7.386-1.292 15.33-3.068 23.372-5.232 7.885-2.234 15.724-4.927 23.237-7.75 3.8-1.391 7.244-2.927 10.63-4.42 3.364-1.5 6.565-3 9.538-4.456s5.743-2.85 8.144-4.183a154.189 154.189 0 0 0 6.183-3.681c3.469-2.191 5.549-3.776 5.755-4.392s-.569-2.56-2.129-5.45a92.476 92.476 0 0 0-2.918-5 198.744 198.744 0 0 0-4.124-6.156A275.056 275.056 0 0 0 96.587 41.04c-4.764-5.149-9.523-10.1-14.367-14.687a337.201 337.201 0 0 0-13.862-12.36c-4.282-3.592-8-6.578-11.142-8.861A73.783 73.783 0 0 0 50.489.614c-2.5-1.351-4.5-.364-6.016 1.918a29.555 29.555 0 0 0-3.66 9.756 57.944 57.944 0 0 0-.943 6.066c-.239 2.035-.52 4.019-.612 5.888-.219 3.73 0 6.931.7 8.627.748 1.708 3.474 4.688 7.175 8.35s8.405 8.015 12.982 12.3c2.318 2.176 4.567 4.284 6.638 6.23l5.534 5.334 5.318 5.171-9.084 2.957c-2.755.868-5.851 1.908-9.382 2.927L48.095 79.29l-11.13 3.136c-3.552.976-7.014 1.929-10.206 2.81-6.159 1.777-10.659 3.386-11.93 4.931-1.328 1.517-3.176 3.576-5.032 5.98-.932 1.2-1.874 2.484-2.782 3.822s-1.757 2.739-2.662 4.093a29.82 29.82 0 0 0-3.863 8.37 14.428 14.428 0 0 0-.483 4.068 9.236 9.236 0 0 0 .723 3.7z" transform="translate(681.772 456.674)"/>
        <path id="Path_13" data-name="Path 13" class="cls-1" d="M0 161.481c1.182-.825 3.823-2.564 7.623-4.875 3.894-2.3 8.929-5.168 14.7-8.261a367.966 367.966 0 0 1 41.1-18.848 340.8 340.8 0 0 1 41.686-12.9c5.9-1.4 10.957-2.444 14.823-3.158 3.837-.723 6.685-1.056 7.823-1.139 2.349-.163-1.745-6.014-8.928-15.493-3.593-4.746-7.658-10.292-12.2-16.527-4.506-6.217-9.412-13.1-13.939-20.058-4.611-7-9.175-14.235-13.388-21.215-4.078-6.9-7.76-13.524-10.9-19.322S62.7 8.928 60.955 5.453A3495.213 3495.213 0 0 1 58.3 0l-.871 1.2c-.55.769-1.366 1.865-2.246 3.272a496.046 496.046 0 0 0-6.709 10.652c-1.216 2.041-2.543 4.1-3.645 6.214s-2.167 4.183-3.108 6.121a48.89 48.89 0 0 0-3.693 9.2c-.465 1.958 2.05 6.827 6.013 12.739a208.392 208.392 0 0 0 15.128 19.409c5.719 6.543 11.718 12.671 16.192 17.078 4.494 4.42 7.532 7.193 7.532 7.193s-3.9.12-9.907.548-13.909 1.28-22.219 2.582A176.161 176.161 0 0 0 27 101.434c-6.818 2.139-12.055 4.555-13.788 6.78-3.62 4.4-7.359 17.707-9.865 29.913a465.923 465.923 0 0 0-2.63 16.263c-.344 2.142-.415 3.93-.553 5.161z" transform="translate(4.956 193.893)"/>
        <path id="Path_14" data-name="Path 14" class="cls-1" d="M0 89.334c.067 1.034 2.238 2.083 5.956 3.17 3.681 1.055 9.015 2.277 15.333 3.665l21.221 4.577c7.781 1.847 15.939 3.869 23.951 6 16.22 4.478 31.852 9.637 43.991 14.324 12.006 4.41 20.658 8.307 23.08 8.676 1.224.212 2.32-1.567 3.358-4.9a131.43 131.43 0 0 0 3.306-13.835l1.791-9.541c.613-3.437 1.354-6.891 2.078-10.618l2.305-11.523c.8-3.964 1.621-8.054 2.545-12a41614.2 41614.2 0 0 1 5.515-23.844c1.844-7.648 3.659-14.746 5.051-21.015C162.293 9.98 163.462 1.2 160.5.519c-5.86-1.373-13.714.086-20.615 3.115-6.833 3.238-12.726 7.857-15.078 12.215-1.166 2.213-2.471 7.78-3.6 14.718a250.871 250.871 0 0 0-2.592 23.345c-1.022 16.312-.544 30.966-.544 30.966l-21.793-9.272c-6.6-2.89-14.109-5.93-22.188-9.39S57.4 58.931 49.216 55.091c-2.222-1.059-6.553.369-11.813 3.139a66.775 66.775 0 0 0-8.251 5.22c-2.844 2.019-5.755 4.229-8.594 6.473-2.88 2.188-5.453 4.687-7.931 6.912a387.077 387.077 0 0 0-6.58 6.208c-.943.921-1.8 1.764-2.561 2.509L1.612 87.57z" transform="translate(133.655 19.139)"/>
        <path id="Path_15" data-name="Path 15" class="cls-1" d="M.234 6.137c-1.35 1.8 3.284 8.922 10.422 18.63 1.757 2.358 3.69 4.946 5.756 7.716 2.036 2.7 4.173 5.7 6.358 8.685 4.374 6.024 8.944 12.3 13.376 18.615 4.428 6.5 8.721 12.939 12.673 18.925 1.982 2.946 3.864 5.968 5.642 8.811 1.751 2.77 3.438 5.445 5.039 7.981a343.221 343.221 0 0 0 4.382 6.722c1.351 1.979 2.554 3.893 3.653 5.389 2.192 3.044 3.906 4.854 5.075 5.063s3.309-1 6.257-3.269c2.927-2.173 6.641-5.306 11.015-9.172 8.766-7.907 20.042-17.734 32.054-27.872 5.934-4.9 11.985-9.748 17.791-14.4l16.047-12.779c9.485-7.6 15.98-13.441 15.561-15.887-.809-4.8-9.291-11.911-18.941-16.368-9.51-4.82-19.947-7.03-23.292-4.7-3.395 2.366-12.268 15.176-20.984 28.232-4.365 6.476-8.692 12.9-12.478 17.842s-7.036 8.365-9.433 9.07c-2.388.652-4.776-2.871-7.384-8.59-1.3-2.859-2.656-6.266-4.078-9.972-1.456-3.728-2.97-7.611-4.491-11.5a223.233 223.233 0 0 0-9.792-22.089C57.17 5.048 53.944 1.077 51.377.837 48.81.64 44.637.323 39.737.065 34.834-.086 29.2.043 23.742.283c-2.73.169-5.417.246-7.947.653-2.533.369-4.906.8-7.014 1.3-4.213.999-7.349 2.276-8.547 3.901z" transform="translate(400.193 3.644)"/>
        <path id="Path_16" data-name="Path 16" class="cls-1" d="M22.937.441c-2 1.142-3.65 9.464-5.413 20.994-.878 5.623-1.912 12.265-3.038 19.482-.548 3.438-1.12 7.014-1.7 10.677C12.2 55.185 11.6 58.8 10.9 62.489a1380.722 1380.722 0 0 1-4.085 21.159c-.64 3.3-1.351 6.565-2.035 9.658-.656 3.022-1.287 5.931-1.88 8.682-1.155 5.392-2 9.864-2.5 13.246-.523 3.417-.573 5.645.052 6.368s3.051 1.044 6.888 1.105c1.915.037 4.208-.012 6.762-.058l8.4-.142 9.945-.237c3.533-.083 7.31-.191 11.073-.157 7.6 0 15.826.077 24.17.265 8.153.314 16.438.733 24.32 1.169q2.983.171 5.827.329l5.5.388c3.662.24 7.079.468 10.177.671 12.712.757 21.544.729 21.963-1.748.429-2.456-.473-6.438-2.249-11.049-.886-2.306-1.989-4.764-3.248-7.257-1.339-2.447-2.869-4.906-4.468-7.291-6.273-9.664-14.654-17.43-19.557-17.042-2.475.2-7.7.809-14.124 1.806-6.5 1.053-14.151 2.475-21.378 4.007s-14.018 3.151-19.037 4.449l-8.3 2.265c-6.873-1.41-1.714-15.986 3.17-31.781 2.5-7.894 5.217-16.257 6.707-23.046s1.979-12.188.48-14.349a75.088 75.088 0 0 0-6.334-7.91 118.791 118.791 0 0 0-8.8-8.507C36.8 6.165 35.291 4.925 33.8 3.87a36.961 36.961 0 0 0-4.355-2.53C26.72.035 24.421-.421 22.937.441z" transform="translate(645.307 91.716)"/>
        <path id="Path_17" data-name="Path 17" class="cls-2" d="M42.6 135.257c1.693.73 8.652-3.505 18.085-11.255 4.555-3.853 9.7-8.6 15.1-14.035 2.665-2.711 5.536-5.626 8.165-8.621 2.658-3 5.337-6.14 7.994-9.375s5.291-6.564 7.863-9.941 4.87-6.743 7.193-10.13c2.3-3.379 4.5-6.752 6.584-10.049s4.043-6.522 5.706-9.559c6.768-12.179 11.36-22.172 11.772-25.118.265-1.5-1.6-3.536-5.048-5.835a61.763 61.763 0 0 0-6.278-3.6 84.85 84.85 0 0 0-8.319-3.712 204.923 204.923 0 0 0-21.126-6.848 236.92 236.92 0 0 0-24.373-4.863A209.881 209.881 0 0 0 41.669.14a169.062 169.062 0 0 0-20.932.4C8.426 1.617.4 3.827.091 6.3a16.765 16.765 0 0 0 1.026 7.6 29.549 29.549 0 0 0 3.729 7.313 27.489 27.489 0 0 0 5.605 5.86 16.772 16.772 0 0 0 6.143 3.441c2.08.573 7.263.8 13.969 1.01 3.383.089 7.052.222 10.859.391l11.77.56c7.873.434 15.712.942 21.359 1.477l9.385.93s-1.13 2.2-3.226 5.832c-1.046 1.816-2.339 3.986-3.853 6.411s-3.257 5.094-5.331 7.965a207.318 207.318 0 0 1-14.591 18.2 166.61 166.61 0 0 1-18.849 17.693 5.624 5.624 0 0 0-1.745 3.54 16.31 16.31 0 0 0-.216 2.625c-.052.963-.061 2-.016 3.1a58.834 58.834 0 0 0 .783 7.11c.4 2.508 1.018 5.094 1.41 7.7.458 2.592.984 5.14 1.516 7.506.511 2.373 1.139 4.549 1.45 6.445.742 3.77 1.332 6.248 1.332 6.248z" transform="translate(677.549 239.547)"/>
        <path id="Path_18" data-name="Path 18" class="cls-2" d="M118.6 131.294c2.01-.6 4.466-8.039 6.325-19.5.465-2.868.886-5.986 1.256-9.313.182-1.659.357-3.382.505-5.134.119-1.72.228-3.49.317-5.293.351-7.22.406-15.069.114-23.1a285.554 285.554 0 0 0-2.292-23.607c-.511-3.905-1.223-7.55-1.952-11.1s-1.527-6.956-2.352-10.157-1.683-6.189-2.557-8.9c-.917-2.634-1.844-5-2.745-7.02-1.81-4.05-3.527-6.743-4.955-7.565-1.444-.791-4.457-.831-8.7.062A108.949 108.949 0 0 0 86 5.5a184.469 184.469 0 0 0-9.326 3.86c-3.26 1.517-6.6 3.17-9.971 4.934-6.756 3.567-13.54 7.408-20.138 11.773C33.324 34.819 21.506 44.3 13.075 52.75 4.682 61.042-.249 67.619.01 69.952c.28 2.336 2 4.884 4.467 7.291a35.885 35.885 0 0 0 4.2 3.465c1.533 1.1 3.118 2.293 4.774 3.281a39.937 39.937 0 0 0 9.735 4.395c2.942.948 5.484 1.077 7.011.022s4.7-4.571 8.86-9.206 9.32-10.418 14.643-15.829c10.634-10.92 22.449-21.018 27.595-20.689 2.514.222 3.834 4.5 4.324 10.744A140.753 140.753 0 0 1 85 76.206c-.754 8.341-1.812 16.642-2.323 23.077a71.49 71.49 0 0 0-.275 8.169c.121 2.142.511 3.6 1.308 4.17a271.43 271.43 0 0 0 7.3 5.051c3.01 2.207 6.479 4.724 10.018 6.977q1.344.831 2.657 1.647c.853.563 1.692 1.12 2.526 1.637a50.58 50.58 0 0 0 4.823 2.69c3.057 1.464 5.737 2.197 7.566 1.67z" transform="translate(512.705 46.64)"/>
        <path id="Path_19" data-name="Path 19" class="cls-2" d="M124.781 99.174c.713-2.118-1.838-9.747-6.857-20.03a187.788 187.788 0 0 0-9.3-16.727 283.266 283.266 0 0 0-12.262-18.23c-4.454-5.974-9.212-11.755-13.995-17.159a250.656 250.656 0 0 0-7.131-7.725c-2.348-2.425-4.645-4.561-6.854-6.59C59.544 4.7 52.145-.447 49.569.031 47 .489 40.468 8.208 33.257 19.571c-3.567 5.863-7.3 12.634-10.846 19.824-.887 1.8-1.763 3.623-2.625 5.462a302.273 302.273 0 0 0-7.114 17.414c-1.449 3.89-2.8 7.75-4.019 11.591a267.023 267.023 0 0 0-3.238 11.455 198.273 198.273 0 0 0-4.229 20.242c-1.715 12.127-1.552 20.326.359 21.283 1.936.948 5.042 1 8.6.406a49.625 49.625 0 0 0 11.631-2.908c.975-.363 1.932-.776 2.881-1.17a45.381 45.381 0 0 0 2.794-1.164 33.582 33.582 0 0 0 4.921-2.714c2.9-1.948 4.921-4.235 5.345-6.5.814-4.53 3.164-19.765 6.245-34.092 1.5-7.2 3.179-13.819 4.466-18.876 1.335-5.026 2.2-8.273 2.2-8.273 2.478-2.558 6.3-1.077 10.613 3.01s9.054 10.514 13.5 17.3a328.6 328.6 0 0 1 6.427 10.227c2 3.333 3.932 6.543 5.72 9.516 3.512 5.688 6.353 9.726 8.344 10.1.994.187 2.17.357 3.469.508 1.3.222 2.73.422 4.219.585a68.632 68.632 0 0 0 9.267.424 39.984 39.984 0 0 0 8.162-.843c2.251-.603 3.884-1.625 4.432-3.204z" transform="translate(302.918)"/>
        <path id="Path_20" data-name="Path 20" class="cls-2" d="M132.94 18.939c-.1-1.554-2.028-3.342-5.381-5.223a56 56 0 0 0-6.068-2.865c-2.334-.939-4.941-1.825-7.833-2.712a186.865 186.865 0 0 0-20.175-4.791C86.081 2.107 78.02 1.162 69.729.532 61.484-.056 53.264-.069 45.24.079c-1.989.049-3.992.089-5.9.2l-5.608.4c-3.668.3-7.183.64-10.464 1.019s-6.337.782-9.081 1.202c-2.683.465-5.053.945-7.051 1.394-4 .9-6.484 1.7-6.885 2.213s-.313 2.6.191 5.845c.255 1.622.613 3.53 1.074 5.672A202.872 202.872 0 0 0 3.344 25.2a278.3 278.3 0 0 0 12.737 36.385c2.77 6.451 5.552 12.689 8.621 18.663a342.722 342.722 0 0 0 8.882 16.288c5.509 9.559 10.5 16.509 12.36 18.608 3.859 4.21 8.661-1.022 13.025-7.753a58.031 58.031 0 0 0 2.94-5.391c.862-1.868 1.834-3.622 2.539-5.358 1.462-3.441 2.332-6.531 2.247-8.368-.126-1.856-1.7-5.59-3.962-10.28s-5.233-10.37-8.107-15.941c-1.449-2.823-2.859-5.562-4.157-8.086-1.278-2.56-2.445-4.9-3.432-6.885-2-4.059-3.284-6.654-3.284-6.654l9.544.246c5.66.108 13.5.588 21.3 1.09l11.529.745c3.782.292 7.4.588 10.584.763 6.4.376 11.145.311 12.9-.68a96.899 96.899 0 0 0 6.738-3.983c2.575-1.628 5.188-3.681 7.8-5.642 5.108-4.034 9.052-9.004 8.792-14.028z" transform="translate(89.81 151.513)"/>
    </g>
</svg>
