<svg xmlns="http://www.w3.org/2000/svg" width="32.473" height="29.1" viewBox="0 0 32.473 29.1">
  <path id="care-planet" d="M1776.116,380c-.272.032-.544.056-.82.071V377.6a.7.7,0,1,0-1.407,0v2.41a6.218,6.218,0,0,1-3.775-3.464,15.743,15.743,0,0,1-1.371-3.592q1.847.257,3.745.344a.7.7,0,0,0,.166-1.4.713.713,0,0,0-.1-.006,40.3,40.3,0,0,1-4.12-.407,23.28,23.28,0,0,1-.345-4.045,23.759,23.759,0,0,1,.213-3.2,38.993,38.993,0,0,0,5.589.491v1.278a.7.7,0,0,0,1.407,0v-1.28a39.256,39.256,0,0,0,4.507-.341.7.7,0,0,0-.189-1.395h0a38.048,38.048,0,0,1-4.319.329V354.88c2.006.439,3.841,2.736,4.9,6.212a.7.7,0,0,0,1.346-.41,13.742,13.742,0,0,0-2.728-5.159,12.6,12.6,0,0,1,5.78,4.194.7.7,0,1,0,1.112-.861h0a13.96,13.96,0,0,0-11.1-5.458h-.038a14.05,14.05,0,1,0,.016,28.1,14.269,14.269,0,0,0,1.69-.1.7.7,0,1,0-.168-1.4h.005Zm-2.227-25.12v8.454a37.443,37.443,0,0,1-5.354-.471,16.5,16.5,0,0,1,1.579-4.518,6.218,6.218,0,0,1,3.768-3.463Zm-3.537.656a11.13,11.13,0,0,0-1.481,2.14,17.942,17.942,0,0,0-1.724,4.936,34.628,34.628,0,0,1-3.778-.989,12.711,12.711,0,0,1,6.977-6.087Zm-8.142,14.485a12.67,12.67,0,0,1,.578-7.109l.022.008a35.994,35.994,0,0,0,4.1,1.08,25.354,25.354,0,0,0,.051,7.245,37.256,37.256,0,0,1-4.679-1.2A.722.722,0,0,0,1762.21,370.019Zm.45,1.613a39.1,39.1,0,0,0,4.585,1.091,17.6,17.6,0,0,0,1.63,4.494,11.119,11.119,0,0,0,1.477,2.14,12.711,12.711,0,0,1-7.7-7.726Zm30.266-2a8.087,8.087,0,0,0-.968-2.587,1.838,1.838,0,0,0-1.144-.685.7.7,0,0,0-.461.111,10.783,10.783,0,0,0-.631-1.68,3.115,3.115,0,0,0-1.719-1.873,2,2,0,0,0-1-.075c-.022-.225-.038-.436-.049-.627a.72.72,0,0,0-.031-.192.7.7,0,0,0-.43-.453,2.734,2.734,0,0,0-3.2.738c-.861.9-.921,2.408-.983,4a21.3,21.3,0,0,1-1,4.645,1.07,1.07,0,0,1-.657.784c-.065.006-.137-.057-.21-.189a3.809,3.809,0,0,1-.165-.351c-.058-.14-.115-.327-.172-.524a6.1,6.1,0,0,0-.4-1.076,4.895,4.895,0,0,0-1.486-1.849,2.633,2.633,0,0,0-1.513-.409,1.7,1.7,0,0,0-1.215.561,2.945,2.945,0,0,0-.644,2.107,6.884,6.884,0,0,0,.449,1.756c.33.772.561,1.393.783,1.994a17.1,17.1,0,0,0,1.97,4.114,5.928,5.928,0,0,0,.515.629,3.162,3.162,0,0,1,.957,2.279v.038a1.635,1.635,0,0,0,1.579,1.681h7.339a.68.68,0,0,0,.106-.007,1.576,1.576,0,0,0,1.361-1.065c.3-.807.594-1.647.888-2.5.269-.772.556-1.62.881-2.585,1-2.98,1.546-4.759,1.247-6.711Zm-2.588,6.261c-.322.96-.608,1.8-.875,2.575-.292.841-.588,1.674-.882,2.475-.036.1-.1.145-.147.145a.575.575,0,0,0-.079,0H1781.1c-.071,0-.173-.107-.173-.276v-.071a4.53,4.53,0,0,0-1.318-3.188,4.828,4.828,0,0,1-.4-.479,15.722,15.722,0,0,1-1.821-3.806c-.218-.588-.465-1.253-.808-2.06a5.928,5.928,0,0,1-.338-1.272,1.641,1.641,0,0,1,.271-1.089.3.3,0,0,1,.23-.105h.039a1.231,1.231,0,0,1,.627.162,3.59,3.59,0,0,1,1.031,1.337,4.977,4.977,0,0,1,.3.831c.063.224.136.445.222.662a4.962,4.962,0,0,0,.232.487,1.6,1.6,0,0,0,1.581.911,2.383,2.383,0,0,0,1.859-1.762,23.435,23.435,0,0,0,1.074-5.005,5.66,5.66,0,0,1,.6-3.09,1.344,1.344,0,0,1,1.27-.509c.028.329.067.685.105,1.055a14.261,14.261,0,0,1,.092,3.85c-.375,1.682-.707,3.152-.985,4.07a.7.7,0,1,0,1.346.407c.292-.966.631-2.461,1.012-4.172a12.7,12.7,0,0,0,0-3.727.623.623,0,0,1,.4,0,1.912,1.912,0,0,1,.88,1.1c.653,1.5.644,1.567.531,2.376-.019.128-.045.283-.078.456-.1.478-.181.943-.257,1.391a27.658,27.658,0,0,1-.621,2.86.7.7,0,1,0,1.349.4h0a28.887,28.887,0,0,0,.658-3.011c.081-.444.165-.9.257-1.371.04-.2.07-.375.093-.534.013-.089.025-.172.033-.257a.691.691,0,0,0,.231.082,1.3,1.3,0,0,1,.168.083,6.558,6.558,0,0,1,.749,2.014C1791.78,371.478,1791.267,373.124,1790.338,375.894Z" transform="translate(-1760.529 -353.397)" fill="#fff"/>
</svg>
