<svg xmlns="http://www.w3.org/2000/svg" width="31.818" height="24.363" viewBox="0 0 31.818 24.363">
  <path id="chart-line" d="M28.886,23.136H3.727V5.432A.932.932,0,0,0,2.8,4.5H.932A.932.932,0,0,0,0,5.432V25a1.864,1.864,0,0,0,1.864,1.864H28.886a.932.932,0,0,0,.932-.932V24.068A.932.932,0,0,0,28.886,23.136ZM27.022,6.364H20.147a1.4,1.4,0,0,0-.988,2.386l1.887,1.887L16.773,14.91,12.5,10.637a1.863,1.863,0,0,0-2.635,0l-4,4a.932.932,0,0,0,0,1.318l1.317,1.317a.932.932,0,0,0,1.318,0l2.682-2.683,4.273,4.273a1.863,1.863,0,0,0,2.635,0l5.591-5.591,1.887,1.887a1.4,1.4,0,0,0,2.386-.988V7.3A.931.931,0,0,0,27.022,6.364Z" transform="translate(1 -3.5)" fill="none" stroke="#fff" stroke-width="2"/>
</svg>
