<svg xmlns="http://www.w3.org/2000/svg" width="51.301" height="31.394" viewBox="0 0 51.301 31.394">
  <path id="counter5" d="M33.826,4.5H27.141a2.489,2.489,0,0,0-1.681.654l-7.649,7c-.008.008-.016.023-.023.031a3.1,3.1,0,0,0-.163,4.358,3.245,3.245,0,0,0,4.365.21c.008-.008.023-.008.031-.016l6.217-5.7a1.245,1.245,0,0,1,1.681,1.836l-2.031,1.86,11.33,9.2a5.607,5.607,0,0,1,.615.6V9.48L35.584,5.231A2.472,2.472,0,0,0,33.826,4.5Zm8.505,5V26.918a2.487,2.487,0,0,0,2.49,2.49H49.8V9.5Zm3.735,17.422a1.245,1.245,0,1,1,1.245-1.245A1.249,1.249,0,0,1,46.066,26.918ZM0,29.4H4.98a2.487,2.487,0,0,0,2.49-2.49V9.5H0Zm3.735-4.972A1.245,1.245,0,1,1,2.49,25.673,1.249,1.249,0,0,1,3.735,24.428Zm33.919,1.447L26.036,16.444,23.7,18.584a5.6,5.6,0,1,1-7.571-8.256L22.5,4.5H15.975a2.486,2.486,0,0,0-1.759.731L9.96,9.48V26.9h1.424l7.042,6.373a4.979,4.979,0,0,0,7-.724l.016-.016,1.393,1.206a2.892,2.892,0,0,0,4.07-.42l2.443-3,.42.342a2.486,2.486,0,0,0,3.5-.366l.739-.91a2.5,2.5,0,0,0-.358-3.509Z" transform="translate(0.75 -3.75)" fill="#eee" stroke="rgba(0,0,0,0.8)" stroke-width="1.5"/>
</svg>
