<svg xmlns="http://www.w3.org/2000/svg" width="38.746" height="24.058" viewBox="0 0 38.746 24.058">
  <path id="handshake" d="M24.958,4.5H20.026a1.837,1.837,0,0,0-1.24.482L13.142,10.15c-.006.006-.011.017-.017.023A2.284,2.284,0,0,0,13,13.388a2.4,2.4,0,0,0,3.221.155c.006-.006.017-.006.023-.011l4.587-4.2a.918.918,0,0,1,1.24,1.355l-1.5,1.372,8.36,6.786a4.137,4.137,0,0,1,.454.442V8.175L26.256,5.04a1.824,1.824,0,0,0-1.3-.54Zm6.275,3.686V21.041a1.835,1.835,0,0,0,1.837,1.837h3.675V8.186ZM33.99,21.041a.919.919,0,1,1,.919-.919A.921.921,0,0,1,33.99,21.041ZM0,22.873H3.675a1.835,1.835,0,0,0,1.837-1.837V8.186H0ZM2.756,19.2a.919.919,0,1,1-.919.919A.921.921,0,0,1,2.756,19.2Zm25.027,1.068-8.572-6.959-1.722,1.579A4.133,4.133,0,0,1,11.9,8.8l4.7-4.3H11.787a1.834,1.834,0,0,0-1.3.54L7.349,8.175V21.03H8.4l5.2,4.7a3.674,3.674,0,0,0,5.167-.534l.011-.011,1.028.89a2.134,2.134,0,0,0,3-.31l1.8-2.216.31.253a1.834,1.834,0,0,0,2.584-.27l.545-.672a1.841,1.841,0,0,0-.264-2.589Z" transform="translate(1 -3.5)" fill="none" stroke="#fff" stroke-width="2"/>
</svg>
