<svg xmlns="http://www.w3.org/2000/svg" width="30.821" height="27.474" viewBox="0 0 30.821 27.474">
  <g id="home" transform="translate(-1763.07 -224.544)">
    <g id="home-2" data-name="home" transform="translate(1763.07 224.544)">
      <g id="Group_1342" data-name="Group 1342">
        <g id="Group_1341" data-name="Group 1341">
          <path id="Path_1427" data-name="Path 1427" d="M1793.563,236.129l-14.612-11.419a.759.759,0,0,0-.947,0L1763.4,236.129a.893.893,0,0,0-.173,1.2.769.769,0,0,0,1.12.185h0l14.137-11.05,14.136,11.049a.769.769,0,0,0,1.12-.185.893.893,0,0,0-.173-1.195Z" transform="translate(-1763.07 -224.544)" fill="#fff"/>
        </g>
      </g>
      <g id="Group_1344" data-name="Group 1344" transform="translate(3.628 11.303)">
        <g id="Group_1343" data-name="Group 1343">
          <path id="Path_1428" data-name="Path 1428" d="M1789.477,237.7a.822.822,0,0,0-.785.855h0v13.607h-6.283v-7.427a3.942,3.942,0,1,0-7.856,0v7.427h-6.283V238.556a.788.788,0,1,0-1.571,0v14.461a.823.823,0,0,0,.785.855h7.855a.815.815,0,0,0,.782-.789q0-.033,0-.066v-8.282a2.365,2.365,0,1,1,4.713,0v8.282q0,.033,0,.066a.817.817,0,0,0,.783.789h7.854a.822.822,0,0,0,.785-.855h0V238.556A.823.823,0,0,0,1789.477,237.7Z" transform="translate(-1766.698 -237.701)" fill="#fff"/>
        </g>
      </g>
    </g>
    <g id="Group_1342-2" data-name="Group 1342" transform="translate(1763.07 224.544)">
      <g id="Group_1341-2" data-name="Group 1341">
        <path id="Path_1427-2" data-name="Path 1427" d="M1793.563,236.129l-14.612-11.419a.759.759,0,0,0-.947,0L1763.4,236.129a.893.893,0,0,0-.173,1.2.769.769,0,0,0,1.12.185h0l14.137-11.05,14.136,11.049a.769.769,0,0,0,1.12-.185.893.893,0,0,0-.173-1.195Z" transform="translate(-1763.07 -224.544)" fill="#fff"/>
      </g>
    </g>
    <g id="Group_1344-2" data-name="Group 1344" transform="translate(1766.698 235.847)">
      <g id="Group_1343-2" data-name="Group 1343">
        <path id="Path_1428-2" data-name="Path 1428" d="M1789.477,237.7a.822.822,0,0,0-.785.855h0v13.607h-6.283v-7.427a3.942,3.942,0,1,0-7.856,0v7.427h-6.283V238.556a.788.788,0,1,0-1.571,0v14.461a.823.823,0,0,0,.785.855h7.855a.815.815,0,0,0,.782-.789q0-.033,0-.066v-8.282a2.365,2.365,0,1,1,4.713,0v8.282q0,.033,0,.066a.817.817,0,0,0,.783.789h7.854a.822.822,0,0,0,.785-.855h0V238.556A.823.823,0,0,0,1789.477,237.7Z" transform="translate(-1766.698 -237.701)" fill="#fff"/>
      </g>
    </g>
  </g>
</svg>
