<svg xmlns="http://www.w3.org/2000/svg" width="51.068" height="45.618" viewBox="0 0 51.068 45.618">
  <path id="icon1" d="M23.451,21.339a1.484,1.484,0,0,0,2.172,0L34.9,11.611a7.061,7.061,0,0,0-.477-10.12,6.475,6.475,0,0,0-8.936.656l-.954,1-.946-.988a6.468,6.468,0,0,0-8.936-.664,7.068,7.068,0,0,0-.477,10.12Zm24.7,6.61a2.82,2.82,0,0,0-3.629,0l-7.871,6.3a5.423,5.423,0,0,1-3.407,1.193H23.17a1.363,1.363,0,1,1,0-2.726h6.67a2.836,2.836,0,0,0,2.837-2.266,2.729,2.729,0,0,0-2.692-3.186H16.355a10.026,10.026,0,0,0-6.312,2.24L6.082,32.711H1.363A1.367,1.367,0,0,0,0,34.073v8.178a1.367,1.367,0,0,0,1.363,1.363H31.756a5.458,5.458,0,0,0,3.407-1.193l12.88-10.307A2.724,2.724,0,0,0,48.154,27.949Z" transform="translate(1 1.004)" fill="none" stroke="#000" stroke-width="2"/>
</svg>
