<svg xmlns="http://www.w3.org/2000/svg" width="48.177" height="42.548" viewBox="0 0 48.177 42.548">
  <g id="icon2" transform="translate(-576 -607)">
    <g id="Group_798" data-name="Group 798" transform="translate(577 608)">
      <circle id="Ellipse_106" data-name="Ellipse 106" cx="8.833" cy="8.833" r="8.833" transform="translate(21.918 9.423)" fill="none" stroke="#000" stroke-linecap="round" stroke-linejoin="round" stroke-width="2"/>
      <path id="Path_631" data-name="Path 631" d="M2713.489,3858.677h0a13.459,13.459,0,0,0-13.459-13.459h-4.207a13.459,13.459,0,0,0-13.459,13.459h0" transform="translate(-2667.312 -3818.128)" fill="none" stroke="#000" stroke-linecap="round" stroke-linejoin="round" stroke-width="2"/>
      <circle id="Ellipse_107" data-name="Ellipse 107" cx="6.797" cy="6.797" r="6.797" transform="translate(5.284)" fill="none" stroke="#000" stroke-linecap="round" stroke-linejoin="round" stroke-width="2"/>
      <path id="Path_632" data-name="Path 632" d="M2683.571,3834.113h-3.237a10.357,10.357,0,0,0-10.357,10.356h0" transform="translate(-2669.977 -3820.518)" fill="none" stroke="#000" stroke-linecap="round" stroke-linejoin="round" stroke-width="2"/>
      <path id="Path_633" data-name="Path 633" d="M2677.563,3834.113h3.238a10.336,10.336,0,0,1,7.868,3.621" transform="translate(-2668.345 -3820.518)" fill="none" stroke="#000" stroke-linecap="round" stroke-linejoin="round" stroke-width="2"/>
    </g>
  </g>
</svg>
