<svg xmlns="http://www.w3.org/2000/svg" width="1068.051" height="70.674" viewBox="0 0 1068.051 70.674">
  <g id="img-proj" transform="translate(-7.389 -211.08)">
    <path id="Path_170" data-name="Path 170" d="M2219.389,211.818h24.685l-12.363,56.645h0Z" transform="translate(-2212)" fill="#ff3f00"/>
    <path id="Path_171" data-name="Path 171" d="M2262.12,281.753h-19.045l9.539-43.7h0Z" transform="translate(-2212)" fill="#4bffc1"/>
    <path id="Path_172" data-name="Path 172" d="M2262.12,211.818h24.686l-12.364,56.645h0Z" transform="translate(-2212)" fill="#f98e10"/>
    <path id="Path_173" data-name="Path 173" d="M2304.851,281.753h-19.045l9.539-43.7h0Z" transform="translate(-2212)" fill="#4bffc1"/>
    <path id="Path_174" data-name="Path 174" d="M2304.851,211.818h24.685l-12.364,56.645h0Z" transform="translate(-2212)" fill="#ff3f00"/>
    <path id="Path_175" data-name="Path 175" d="M2347.581,281.753h-19.045l9.539-43.7h0Z" transform="translate(-2212)" fill="#4bffc1"/>
    <path id="Path_176" data-name="Path 176" d="M2347.581,211.818h24.685L2359.9,268.463h0Z" transform="translate(-2212)" fill="#f98e10"/>
    <path id="Path_177" data-name="Path 177" d="M2390.312,281.753h-19.045l9.539-43.7h0Z" transform="translate(-2212)" fill="#4bffc1"/>
    <path id="Path_178" data-name="Path 178" d="M2390.312,211.818H2415l-12.364,56.645h0Z" transform="translate(-2212)" fill="#ff3f00"/>
    <path id="Path_179" data-name="Path 179" d="M2433.043,281.753H2414l9.539-43.7h0Z" transform="translate(-2212)" fill="#4bffc1"/>
    <path id="Path_180" data-name="Path 180" d="M2433.043,211.818h24.686l-12.364,56.645h0Z" transform="translate(-2212)" fill="#f98e10"/>
    <path id="Path_181" data-name="Path 181" d="M2475.774,281.753h-19.045l9.539-43.7h0Z" transform="translate(-2212)" fill="#4bffc1"/>
    <path id="Path_182" data-name="Path 182" d="M2475.774,211.818h24.685L2488.1,268.463h0Z" transform="translate(-2212)" fill="#ff3f00"/>
    <path id="Path_183" data-name="Path 183" d="M2518.5,281.753h-19.045l9.539-43.7h0Z" transform="translate(-2212)" fill="#4bffc1"/>
    <path id="Path_184" data-name="Path 184" d="M2518.5,211.818h24.686l-12.364,56.645h0Z" transform="translate(-2212)" fill="#f98e10"/>
    <path id="Path_185" data-name="Path 185" d="M2561.235,281.753H2542.19l9.539-43.7h0Z" transform="translate(-2212)" fill="#4bffc1"/>
    <path id="Path_186" data-name="Path 186" d="M2561.235,211.818h24.686l-12.364,56.645h0Z" transform="translate(-2212)" fill="#ff3f00"/>
    <path id="Path_187" data-name="Path 187" d="M2603.966,281.753h-19.045l9.539-43.7h0Z" transform="translate(-2212)" fill="#4bffc1"/>
    <path id="Path_188" data-name="Path 188" d="M2603.747,211.08h24.686l-12.364,56.645h0Z" transform="translate(-2212)" fill="#f98e10"/>
    <path id="Path_189" data-name="Path 189" d="M2646.478,281.015h-19.045l9.539-43.7h0Z" transform="translate(-2212)" fill="#4bffc1"/>
    <path id="Path_190" data-name="Path 190" d="M2646.478,211.08h24.686L2658.8,267.724h0Z" transform="translate(-2212)" fill="#ff3f00"/>
    <path id="Path_191" data-name="Path 191" d="M2689.208,281.015h-19.045l9.539-43.7h0Z" transform="translate(-2212)" fill="#4bffc1"/>
    <path id="Path_192" data-name="Path 192" d="M2689.208,211.08h24.685l-12.364,56.645h0Z" transform="translate(-2212)" fill="#f98e10"/>
    <path id="Path_193" data-name="Path 193" d="M2731.939,281.015h-19.045l9.539-43.7h0Z" transform="translate(-2212)" fill="#4bffc1"/>
    <path id="Path_194" data-name="Path 194" d="M2731.939,211.08h24.686l-12.364,56.645h0Z" transform="translate(-2212)" fill="#ff3f00"/>
    <path id="Path_195" data-name="Path 195" d="M2774.67,281.015h-19.045l9.539-43.7h0Z" transform="translate(-2212)" fill="#4bffc1"/>
    <path id="Path_196" data-name="Path 196" d="M2774.67,211.08h24.686l-12.364,56.645h0Z" transform="translate(-2212)" fill="#f98e10"/>
    <path id="Path_197" data-name="Path 197" d="M2817.4,281.015h-19.045l9.539-43.7h0Z" transform="translate(-2212)" fill="#4bffc1"/>
    <path id="Path_198" data-name="Path 198" d="M2817.4,211.08h24.685l-12.364,56.645h0Z" transform="translate(-2212)" fill="#ff3f00"/>
    <path id="Path_199" data-name="Path 199" d="M2860.132,281.015h-19.045l9.539-43.7h0Z" transform="translate(-2212)" fill="#4bffc1"/>
    <path id="Path_200" data-name="Path 200" d="M2860.132,211.08h24.686l-12.364,56.645h0Z" transform="translate(-2212)" fill="#f98e10"/>
    <path id="Path_201" data-name="Path 201" d="M2902.862,281.015h-19.045l9.539-43.7h0Z" transform="translate(-2212)" fill="#4bffc1"/>
    <path id="Path_202" data-name="Path 202" d="M2902.862,211.08h24.686l-12.364,56.645h0Z" transform="translate(-2212)" fill="#ff3f00"/>
    <path id="Path_203" data-name="Path 203" d="M2945.593,281.015h-19.045l9.539-43.7h0Z" transform="translate(-2212)" fill="#4bffc1"/>
    <path id="Path_204" data-name="Path 204" d="M2945.593,211.818h24.685l-12.364,56.645h0Z" transform="translate(-2212)" fill="#f98e10"/>
    <path id="Path_205" data-name="Path 205" d="M2988.324,281.753h-19.045l9.539-43.7h0Z" transform="translate(-2212)" fill="#4bffc1"/>
    <path id="Path_206" data-name="Path 206" d="M2988.324,211.818h24.686l-12.364,56.645h0Z" transform="translate(-2212)" fill="#ff3f00"/>
    <path id="Path_207" data-name="Path 207" d="M3031.055,281.753H3012.01l9.539-43.7h0Z" transform="translate(-2212)" fill="#4bffc1"/>
    <path id="Path_208" data-name="Path 208" d="M3031.055,211.818h24.686l-12.364,56.645h0Z" transform="translate(-2212)" fill="#f98e10"/>
    <path id="Path_209" data-name="Path 209" d="M3073.786,281.753H3054.74l9.539-43.7h0Z" transform="translate(-2212)" fill="#4bffc1"/>
    <path id="Path_210" data-name="Path 210" d="M3073.786,211.818h24.685l-12.364,56.645h0Z" transform="translate(-2212)" fill="#ff3f00"/>
    <path id="Path_211" data-name="Path 211" d="M3116.516,281.753h-19.045l9.539-43.7h0Z" transform="translate(-2212)" fill="#4bffc1"/>
    <path id="Path_212" data-name="Path 212" d="M3116.516,211.818H3141.2l-12.363,56.645h0Z" transform="translate(-2212)" fill="#f98e10"/>
    <path id="Path_213" data-name="Path 213" d="M3159.247,281.753H3140.2l9.539-43.7h0Z" transform="translate(-2212)" fill="#4bffc1"/>
    <path id="Path_214" data-name="Path 214" d="M3159.247,211.818h24.686l-12.364,56.645h0Z" transform="translate(-2212)" fill="#ff3f00"/>
    <path id="Path_215" data-name="Path 215" d="M3201.978,281.753h-19.045l9.539-43.7h0Z" transform="translate(-2212)" fill="#4bffc1"/>
    <path id="Path_216" data-name="Path 216" d="M3201.978,211.818h24.685L3214.3,268.463h0Z" transform="translate(-2212)" fill="#f98e10"/>
    <path id="Path_217" data-name="Path 217" d="M3244.709,281.753h-19.045l9.539-43.7h0Z" transform="translate(-2212)" fill="#4bffc1"/>
    <path id="Path_218" data-name="Path 218" d="M3244.709,211.818h24.685l-12.363,56.645h0Z" transform="translate(-2212)" fill="#ff3f00"/>
    <path id="Path_219" data-name="Path 219" d="M3287.439,281.753h-19.045l9.539-43.7h0Z" transform="translate(-2212)" fill="#4bffc1"/>
  </g>
</svg>
