<svg xmlns="http://www.w3.org/2000/svg" width="43.424" height="42.639" viewBox="0 0 43.424 42.639">
  <g id="serv1" transform="translate(-1226.022 -321.017)">
    <path id="Icon_awesome-hand-holding" data-name="Icon awesome-hand-holding" d="M41.142,23.09a2.409,2.409,0,0,0-3.1,0l-6.725,5.378a4.633,4.633,0,0,1-2.911,1.019H19.8a1.164,1.164,0,0,1,0-2.329h5.7a2.423,2.423,0,0,0,2.424-1.936,2.332,2.332,0,0,0-2.3-2.722H13.974a8.566,8.566,0,0,0-5.393,1.914L5.2,27.158H1.164A1.168,1.168,0,0,0,0,28.322v6.987a1.168,1.168,0,0,0,1.164,1.164H27.132a4.664,4.664,0,0,0,2.911-1.019l11-8.806A2.328,2.328,0,0,0,41.142,23.09Z" transform="translate(1226.772 326.432)" fill="none" stroke="rgba(0,0,0,0.6)" stroke-width="1.5"/>
    <path id="Icon_awesome-dollar-sign" data-name="Icon awesome-dollar-sign" d="M8.623,9.619l-4.451-1.3a1.216,1.216,0,0,1,.342-2.382H7.247a2.516,2.516,0,0,1,1.41.433.642.642,0,0,0,.8-.082l1.434-1.4a.668.668,0,0,0-.074-1.01A5.828,5.828,0,0,0,7.255,2.638V.659A.661.661,0,0,0,6.6,0H5.276a.661.661,0,0,0-.659.659V2.638h-.1A4.516,4.516,0,0,0,.022,7.567a4.718,4.718,0,0,0,3.454,3.981L7.7,12.785a1.216,1.216,0,0,1-.342,2.382H4.625a2.516,2.516,0,0,1-1.41-.433.643.643,0,0,0-.8.082l-1.434,1.4a.668.668,0,0,0,.074,1.01,5.828,5.828,0,0,0,3.565,1.236v1.978a.661.661,0,0,0,.659.659H6.6a.661.661,0,0,0,.659-.659V18.456a4.656,4.656,0,0,0,4.356-3,4.526,4.526,0,0,0-2.988-5.84Z" transform="translate(1242.093 321.767)" fill="none" stroke="rgba(0,0,0,0.6)" stroke-width="1.5"/>
  </g>
</svg>
