<svg xmlns="http://www.w3.org/2000/svg" width="32.185" height="36.569" viewBox="0 0 32.185 36.569">
  <path id="serv4" d="M15.343,17.535A8.767,8.767,0,1,0,6.575,8.767,8.767,8.767,0,0,0,15.343,17.535ZM21.9,19.767,18.63,32.877l-2.192-9.315,2.192-3.836H12.055l2.192,3.836-2.192,9.315L8.781,19.767A9.19,9.19,0,0,0,0,28.932v2.849a3.289,3.289,0,0,0,3.288,3.288H27.4a3.289,3.289,0,0,0,3.288-3.288V28.932A9.19,9.19,0,0,0,21.9,19.767Z" transform="translate(0.75 0.75)" fill="none" stroke="rgba(0,0,0,0.6)" stroke-width="1.5"/>
</svg>
