<svg xmlns="http://www.w3.org/2000/svg" width="43.386" height="26.644" viewBox="0 0 43.386 26.644">
  <path id="serv2" d="M28.45,4.5H22.828a2.093,2.093,0,0,0-1.414.55l-6.433,5.89c-.007.007-.013.02-.02.026a2.6,2.6,0,0,0-.137,3.665,2.73,2.73,0,0,0,3.672.177c.007-.007.02-.007.026-.013L23.751,10a1.047,1.047,0,0,1,1.414,1.545l-1.708,1.564,9.529,7.736a4.716,4.716,0,0,1,.517.5V8.689L29.929,5.115A2.079,2.079,0,0,0,28.45,4.5ZM35.6,8.7V23.355A2.092,2.092,0,0,0,37.7,25.45h4.189V8.7Zm3.141,14.654a1.047,1.047,0,1,1,1.047-1.047A1.05,1.05,0,0,1,38.745,23.355ZM0,25.443H4.189a2.092,2.092,0,0,0,2.094-2.094V8.7H0Zm3.141-4.182a1.047,1.047,0,1,1-1.047,1.047A1.05,1.05,0,0,1,3.141,21.261ZM31.67,22.478,21.9,14.546l-1.963,1.8A4.711,4.711,0,0,1,13.567,9.4l5.354-4.9H13.436a2.091,2.091,0,0,0-1.479.615L8.377,8.689V23.342h1.2L15.5,28.7a4.188,4.188,0,0,0,5.89-.609l.013-.013L22.573,29.1A2.432,2.432,0,0,0,26,28.742l2.055-2.526.353.288a2.091,2.091,0,0,0,2.945-.308l.622-.766a2.1,2.1,0,0,0-.3-2.952Z" transform="translate(0.75 -3.75)" fill="none" stroke="rgba(0,0,0,0.6)" stroke-width="1.5"/>
</svg>
