<svg xmlns="http://www.w3.org/2000/svg" width="31.495" height="41.348" viewBox="0 0 31.495 41.348">
  <g id="specification" transform="translate(-1763.483 -602.723)">
    <path id="Path_1431" data-name="Path 1431" d="M1784.076,605.146h-1.418a3.635,3.635,0,0,0-6.853,0h-1.423a1.211,1.211,0,0,0-1.211,1.212h0v1.211h-8.477a1.211,1.211,0,0,0-1.211,1.211v34.08a1.211,1.211,0,0,0,1.211,1.212h29.073a1.211,1.211,0,0,0,1.211-1.212V608.781a1.211,1.211,0,0,0-1.211-1.212h-8.481v-1.211a1.211,1.211,0,0,0-1.21-1.213Zm-8.479,2.424h1.212a1.211,1.211,0,0,0,1.211-1.211,1.211,1.211,0,1,1,2.422,0,1.211,1.211,0,0,0,1.212,1.211h1.211v2.423H1775.6Zm16.958,2.423v31.657H1765.9V609.992h7.268V611.2a1.211,1.211,0,0,0,1.209,1.211h9.689a1.211,1.211,0,0,0,1.212-1.211v-1.211Z" fill="#fff"/>
    <path id="Path_1432" data-name="Path 1432" d="M1773.48,616.469a1.249,1.249,0,0,0,1.249,1.249h14.994a1.25,1.25,0,0,0,0-2.5h-14.994A1.25,1.25,0,0,0,1773.48,616.469Z" transform="translate(-0.662 -0.406)" fill="#fff"/>
    <ellipse id="Ellipse_143" data-name="Ellipse 143" cx="2" cy="2.5" rx="2" ry="2.5" transform="translate(1768.44 613.555)" fill="#fff"/>
    <path id="Path_1433" data-name="Path 1433" d="M1789.723,620.218h-14.994a1.249,1.249,0,1,0,0,2.5h14.994a1.249,1.249,0,1,0,0-2.5Z" transform="translate(-0.662 -0.568)" fill="#fff"/>
    <ellipse id="Ellipse_144" data-name="Ellipse 144" cx="2" cy="1.499" rx="2" ry="1.499" transform="translate(1768.44 620.344)" fill="#fff"/>
    <path id="Path_1434" data-name="Path 1434" d="M1789.723,625.215h-14.994a1.249,1.249,0,1,0,0,2.5h14.994a1.249,1.249,0,1,0,0-2.5Z" transform="translate(-0.662 -0.73)" fill="#fff"/>
    <ellipse id="Ellipse_145" data-name="Ellipse 145" cx="2" cy="1.499" rx="2" ry="1.499" transform="translate(1768.44 624.212)" fill="#fff"/>
    <path id="Path_1435" data-name="Path 1435" d="M1788.785,630.213h-19.109a1.224,1.224,0,0,0-1.195,1.25h0v7.664a1.223,1.223,0,0,0,1.195,1.249h19.109a1.222,1.222,0,0,0,1.194-1.249h0v-7.664a1.223,1.223,0,0,0-1.194-1.25Zm-1.194,7.665H1770.87v-5.165h16.721Z" transform="translate(0 -1.304)" fill="#fff"/>
  </g>
</svg>
