<svg xmlns="http://www.w3.org/2000/svg" width="615" height="24.258">
    <g data-name="Group 1381" style="opacity:.1">
        <path data-name="Path 431" d="M615 10.691c-3.783 2.106-7.6 4.176-11.338 6.331a5.4 5.4 0 0 1-5.785-.005c-4.81-2.534-9.091-5.629-13.64-8.438-2.362-1.459-4.879-2.751-7.391-4.031-1.514-.773-2.953-1.575-1.941-3.222 1.064-1.732 2.794-1.45 4.549-.686 4.634 2.02 8.6 4.83 12.763 7.407 10.394 6.429 6.691 6.569 17.4.015 1.792-1.1 3.24-2.586 5.38-3.289z"/>
        <path data-name="Path 432" d="M0 9.507c7.247 4.288 4.789 5.051 13.281-.11 3.627-2.2 7.029-4.664 10.662-6.86A28.486 28.486 0 0 1 29.269.228a2.588 2.588 0 0 1 3.241 1.167c.629 1.128.2 2.207-1.206 2.716-5.972 2.172-10.429 6.082-15.531 9.25-.19.117-.381.234-.568.355-4.673 3-9.384 5.761-15.205 1.711z"/>
        <path data-name="Path 433" d="M615.001 23.12c-2.1.211-4.635 2.49-6.163-.169-1.592-2.769 2.069-2.883 3.789-3.9.762-.452 1.582-.838 2.375-1.254z"/>
        <path data-name="Path 434" d="M362.964 2.081a2.3 2.3 0 0 1-1.438 2.026c-7.461 2.972-13.152 7.993-19.809 11.9-3.677 2.158-6.552 2.049-10.142-.026-6.7-3.873-12.508-8.749-19.774-11.976-1.227-.545-1.8-1.611-.938-2.778a2.9 2.9 0 0 1 3.666-.9 44.851 44.851 0 0 1 8.083 4.241c3.849 2.452 7.728 4.872 11.516 7.387a3.947 3.947 0 0 0 4.984.037q6.639-4.429 13.518-8.608a38.466 38.466 0 0 1 6.428-3.088 2.724 2.724 0 0 1 3.906 1.785z"/>
        <path data-name="Path 435" d="M230.774 2.319a2 2 0 0 1-1.452 1.873c-5.833 2.165-10.118 6.12-15.247 9.093-11.526 6.679-9.524 5.553-18.786.032-4.994-2.978-9.471-6.552-14.952-8.969-1.632-.72-2.325-1.828-1.44-3.153.873-1.308 2.365-1.43 4-.727 5.088 2.189 9.343 5.34 13.908 8.144 8.93 5.484 5.839 6.144 15.778-.042 4.539-2.825 8.6-6.207 13.9-8.108 2.448-.876 4.39.015 4.291 1.857z"/>
        <path data-name="Path 436" d="M494.807 2.277a1.862 1.862 0 0 1-1.359 1.9c-6.5 2.573-11.343 7.051-17.229 10.311-8.536 4.727-6.5 4.707-14.937.026-5.886-3.267-10.836-7.625-17.218-10.346-1.506-.642-1.891-1.856-1.081-3.011a2.894 2.894 0 0 1 3.705-.788 62.852 62.852 0 0 1 10.572 5.9c3.069 2 6.247 3.882 9.285 5.911a3.545 3.545 0 0 0 4.4-.005c4.275-2.793 8.547-5.592 12.931-8.263A48.265 48.265 0 0 1 490.82.397c2.209-.895 4.002.084 3.987 1.88z"/>
        <path data-name="Path 437" d="M164.778 2.12a1.926 1.926 0 0 1-1.273 1.959c-6.915 2.416-11.755 7.222-17.8 10.626-8.009 4.51-6.271 4.323-14.071.044-6.009-3.3-11.058-7.715-17.486-10.552-1.436-.634-2.187-1.6-1.3-2.9.906-1.341 2.28-1.53 3.939-.858 4.077 1.65 7.548 4.028 11.116 6.294 3.539 2.248 6.717 6.115 10.953 6 4.039-.107 7.118-3.877 10.5-6.161 3.495-2.358 6.97-4.736 11.208-6.133 2.32-.764 4.115.002 4.214 1.681z"/>
        <path data-name="Path 438" d="M379.848-.001c1 .452 2.248.983 3.459 1.574 5.741 2.8 10.6 6.591 15.867 9.916 2.623 1.655 4.606 1.653 7.075-.087 3.965-2.794 8.1-5.424 12.211-8.071a26.341 26.341 0 0 1 6.8-3.125 2.635 2.635 0 0 1 3.282 1.057c.561.983.516 2.177-.691 2.618-8.495 3.1-14.278 9.347-22.2 13.119-2.094 1-3.825 1.217-5.813.019-2.676-1.613-5.492-3.07-8.116-4.739-4.314-2.744-8.353-5.8-13.221-7.9-1.349-.584-2.377-1.42-1.786-2.826.438-1.038 1.498-1.46 3.133-1.555z"/>
        <path data-name="Path 439" d="M72.115 17.872a7.253 7.253 0 0 1-3.542-1.382C61.416 12.639 55.416 7.457 47.86 4.053c-1.236-.557-1.877-1.522-1.029-2.737.953-1.364 2.274-1.565 3.915-.874a67.213 67.213 0 0 1 10.58 5.935c2.7 1.761 5.547 3.393 8.087 5.3 2.223 1.673 4.119 1.413 6.209.013C79.401 9.158 83.18 6.625 87 4.136a30.85 30.85 0 0 1 7.931-3.86c1.578-.478 2.857-.167 3.609 1.063a1.756 1.756 0 0 1-1.116 2.74c-6.434 2.165-10.942 6.5-16.339 9.828a29.726 29.726 0 0 1-8.97 3.965z"/>
        <path data-name="Path 440" d="M560.872 1.869a1.955 1.955 0 0 1-1.3 2.213c-6.385 2.4-11 6.813-16.629 10.052-9.218 5.3-7.637 4.879-16.23 0-5.657-3.214-10.432-7.451-16.673-10.023-1.506-.621-1.885-1.843-.979-3.015.875-1.133 2.22-1.3 3.74-.7a56.146 56.146 0 0 1 10.058 5.529c3.071 2.012 6.213 3.95 9.23 6.016a4.212 4.212 0 0 0 5.343.064c3.755-2.56 7.6-5.027 11.413-7.532a38.577 38.577 0 0 1 7.818-4.054c2.213-.82 3.631-.219 4.209 1.45z"/>
        <path data-name="Path 441" d="M296.786 2.754c-.041.46-.562 1.071-1.5 1.423-6.264 2.346-10.857 6.615-16.379 9.8-9.143 5.281-7.263 5.265-16.434.039-5.553-3.164-10.318-7.244-16.369-9.853-1.511-.651-1.965-1.748-1.138-2.968s2.162-1.429 3.667-.821a59.681 59.681 0 0 1 10.031 5.544c3.272 2.114 6.59 4.178 9.849 6.3a3.593 3.593 0 0 0 4.423-.057q6.509-4.341 13.146-8.548a27.646 27.646 0 0 1 6.742-3.237c2.232-.671 4.094.281 3.962 2.378z"/>
        <path data-name="Path 442" d="M65.089 22.348c-.526 1.7-1.909 2.294-3.97 1.655a35.066 35.066 0 0 1-8.779-4.412c-3.541-2.308-6.837-4.87-10.684-6.864a4.043 4.043 0 0 0-4.186 0c-3.929 2.061-7.341 4.666-10.983 7.029a39.335 39.335 0 0 1-8.129 4.2c-1.7.609-3.136.314-3.895-1.047-.693-1.242-.088-2.309 1.468-2.9 5.375-2.033 9.381-5.649 14.121-8.41 10.05-5.852 9.155-5.8 19.03 0 4.818 2.831 8.871 6.546 14.447 8.513a2.127 2.127 0 0 1 1.56 2.236z"/>
        <path data-name="Path 443" d="M479.528 24.197c-1.726.016-2.683-.494-3.091-1.55a1.675 1.675 0 0 1 1-2.314c7.226-2.58 12.286-7.653 18.712-11.162 3.858-2.107 7.159-2.216 10.979 0 4 2.315 7.64 4.977 11.482 7.441a35.222 35.222 0 0 0 6.66 3.361c1.439.54 2.416 1.38 1.756 2.765-.692 1.453-2.114 1.741-3.8 1.233a36.181 36.181 0 0 1-9.333-4.763c-3.261-2.123-6.556-4.211-9.822-6.329a4.253 4.253 0 0 0-4.795-.035c-4.412 2.352-8.093 5.458-12.325 7.986a26.678 26.678 0 0 1-7.423 3.367z"/>
        <path data-name="Path 444" d="M197.165 22.18c-.527 1.658-1.788 2.411-3.919 1.794a30.8 30.8 0 0 1-8.242-4.02c-2.707-1.761-5.235-3.726-8.047-5.358-6.174-3.582-4.408-3.4-10.266-.159-3.939 2.181-7.581 4.73-11.431 7.026a38.212 38.212 0 0 1-5.2 2.53 2.675 2.675 0 0 1-3.38-.844 1.761 1.761 0 0 1 .776-2.844c7.352-3.282 13.23-8.3 20.374-11.836 2.763-1.368 5.207-1.488 7.814.074 2.3 1.381 4.746 2.61 6.968 4.074 4.082 2.689 7.88 5.7 12.765 7.428a2.416 2.416 0 0 1 1.788 2.135z"/>
        <path data-name="Path 445" d="M461.175 21.687c.16 1.867-1.77 2.9-4 2.25a31 31 0 0 1-8.2-4.048c-3.172-2.054-6.406-4.053-9.415-6.262-2.728-2-5.116-1.742-7.751.039-3.486 2.356-7.057 4.627-10.633 6.889a31.659 31.659 0 0 1-7.005 3.427 2.814 2.814 0 0 1-3.409-.806 1.727 1.727 0 0 1 .738-2.837c7.131-2.85 12.488-7.743 19.024-11.282 3.615-1.958 6.844-2.225 10.3.022 2.141 1.391 4.432 2.623 6.552 4.033 3.782 2.514 7.364 5.256 11.883 6.881a2.687 2.687 0 0 1 1.916 1.694z"/>
        <path data-name="Path 446" d="M329.149 22.216c-.585 1.888-2.053 2.368-4.256 1.665a35.412 35.412 0 0 1-8.442-4.3c-3.553-2.292-6.865-4.834-10.675-6.864a4.274 4.274 0 0 0-4.514 0 95.218 95.218 0 0 0-9.747 6.4 37.263 37.263 0 0 1-8.6 4.657c-1.708.621-3.41.746-4.321-.773-.931-1.549.168-2.569 1.961-3.188 4.811-1.66 8.246-4.9 12.293-7.444 10.892-6.846 10.784-6.6 21.257-.081 4.35 2.706 8.215 5.977 13.333 7.762a2.343 2.343 0 0 1 1.711 2.166z"/>
        <path data-name="Path 447" d="M263.158 21.696c.123 1.888-1.884 2.885-4.09 2.208a36.374 36.374 0 0 1-9.592-4.961c-2.485-1.668-5.04-3.268-7.448-5.009-2.91-2.1-5.607-2.344-8.643-.082-2.9 2.162-6.055 4.093-9.127 6.094a34.727 34.727 0 0 1-8.2 4.052 2.761 2.761 0 0 1-3.545-1.143 1.654 1.654 0 0 1 .972-2.53c6.709-2.5 11.583-7.109 17.584-10.414 6.069-3.343 7.151-3.34 13.225.018 5.99 3.311 10.8 8 17.593 10.391.631.222.969 1.032 1.271 1.376z"/>
        <path data-name="Path 448" d="M83.273 24.242c-1.5-.118-2.456-.495-2.809-1.449-.329-.89-.314-1.957.775-2.376 7.524-2.89 12.768-8.41 19.884-11.793a9.193 9.193 0 0 1 9.148.181 103.132 103.132 0 0 1 9.076 5.659c3.022 2.06 6 4.169 9.672 5.419 1.682.572 2.572 1.55 1.8 3-.752 1.409-2.2 1.568-3.888 1.028-4.048-1.3-7.369-3.51-10.671-5.746-2.751-1.864-5.462-3.757-8.43-5.4a4.281 4.281 0 0 0-4.514-.062 81.455 81.455 0 0 0-9.019 5.724 47.259 47.259 0 0 1-8.413 4.9c-.934.391-1.933.679-2.611.915z"/>
        <path data-name="Path 449" d="M593.124 21.681c.134 1.95-1.676 2.91-3.983 2.239a34.289 34.289 0 0 1-9.047-4.611c-3.273-2.117-6.575-4.2-9.823-6.347a4.172 4.172 0 0 0-5.075.036q-5.862 3.841-11.838 7.562a29.711 29.711 0 0 1-7.381 3.5 2.731 2.731 0 0 1-3.326-1.056 1.792 1.792 0 0 1 1.035-2.787c6.383-2.39 11.025-6.8 16.781-9.889 7.652-4.106 6.747-4.221 14.381-.115 5.85 3.146 10.472 7.75 17.083 10.029a1.687 1.687 0 0 1 1.193 1.439z"/>
        <path data-name="Path 450" d="M395.097 22.308c-.35 1.566-1.684 2.346-3.744 1.644a32.384 32.384 0 0 1-5.918-2.637c-2.995-1.759-5.752-3.794-8.7-5.613-8.072-4.983-6.006-4.948-14.206.067-4.285 2.62-8.121 5.751-12.969 7.718-1.81.734-3.75 1.36-4.892-.573-1.071-1.816.643-2.638 2.352-3.3 4.9-1.906 8.605-5.192 12.93-7.761 10.239-6.082 9.3-6.1 19.516.019 4.689 2.809 8.715 6.39 14.183 8.284a2.023 2.023 0 0 1 1.448 2.152z"/>
    </g>
</svg>
