<svg id="up" xmlns="http://www.w3.org/2000/svg" width="57" height="57" viewBox="0 0 57 57">
  <path id="Path_936" data-name="Path 936" d="M28.5,0A28.5,28.5,0,1,1,0,28.5,28.5,28.5,0,0,1,28.5,0Z" transform="translate(57 57) rotate(180)" fill="#852023"/>
  <g id="Group_1329" data-name="Group 1329" transform="translate(62.431 63.258) rotate(180)">
    <path id="Path_915" data-name="Path 915" d="M10.822,15.265a2.89,2.89,0,0,0,0,4.072L25.1,33.569a2.876,2.876,0,0,0,3.968.09L43.132,19.636a2.874,2.874,0,1,0-4.057-4.072l-12.083,11.9L14.894,15.25A2.877,2.877,0,0,0,10.822,15.265Z" transform="translate(7.411 12.38)" fill="#fff"/>
    <path id="Path_917" data-name="Path 917" d="M10.452,14.889a1.615,1.615,0,0,0,0,2.276l7.979,7.954a1.607,1.607,0,0,0,2.218.05l7.862-7.837a1.607,1.607,0,1,0-2.268-2.276L19.49,21.71l-6.762-6.829A1.608,1.608,0,0,0,10.452,14.889Z" transform="translate(14.909 9.789)" fill="#fff"/>
  </g>
</svg>
