<svg xmlns="http://www.w3.org/2000/svg" width="101.083" height="67.655" viewBox="0 0 101.083 67.655">
  <g id="vision2030" transform="translate(0.001 0.004)">
    <rect id="Rectangle_153" data-name="Rectangle 153" width="1.138" height="1.138" transform="translate(59.542 1.221)" fill="#afacac"/>
    <rect id="Rectangle_154" data-name="Rectangle 154" width="1.138" height="1.138" transform="translate(83.179 15.327)" fill="#afacac"/>
    <path id="Path_530" data-name="Path 530" d="M125.6,15.166a1.683,1.683,0,0,0,.676-.569,2.452,2.452,0,0,0,.361-.915,6.149,6.149,0,0,0,.108-1.191V4.55H125.61v7.941a4.983,4.983,0,0,1-.054.815,1.43,1.43,0,0,1-.169.538.661.661,0,0,1-.323.292,1.33,1.33,0,0,1-.538.092h-.269a2.191,2.191,0,0,1-.307-.077l-.3,1.1a3.544,3.544,0,0,0,.922.123,2.306,2.306,0,0,0,1.03-.2" transform="translate(-28.602 -1.053)" fill="#afacac"/>
    <path id="Path_531" data-name="Path 531" d="M120.373,1.483h-1.537V1.221a.515.515,0,0,1,.092-.331c.046-.069.169-.1.346-.1h.769V0h-.769a1.391,1.391,0,0,0-1,.338,1.537,1.537,0,0,0-.346,1.092v.93h2.491Z" transform="translate(-27.278 0)" fill="#afacac"/>
    <rect id="Rectangle_155" data-name="Rectangle 155" width="1.138" height="1.138" transform="translate(80.912 15.327)" fill="#afacac"/>
    <rect id="Rectangle_156" data-name="Rectangle 156" width="1.138" height="1.138" transform="translate(61.817 1.221)" fill="#afacac"/>
    <path id="Path_532" data-name="Path 532" d="M114.019,11.345a4.466,4.466,0,0,0,1.537.684,7.226,7.226,0,0,0,1.806.215h.3l.384-.769v1.107a1.491,1.491,0,0,1-.515,1.276,2.352,2.352,0,0,1-1.437.377,4.358,4.358,0,0,1-.938-.092,5.7,5.7,0,0,1-.961-.346l-.392,1.092a9.531,9.531,0,0,0,1.153.361,4.166,4.166,0,0,0,1.015.123,3.236,3.236,0,0,0,2.421-.769,2.967,2.967,0,0,0,.769-2.122V4.55h-1.822a5.819,5.819,0,0,0-1.914.292,4.612,4.612,0,0,0-1.507.822,3.644,3.644,0,0,0-.953,1.238,3.513,3.513,0,0,0-.346,1.537A3.72,3.72,0,0,0,113,10.161a3.359,3.359,0,0,0,1.022,1.176m0-4.02a2.745,2.745,0,0,1,.7-.884,3.075,3.075,0,0,1,.984-.561,3.436,3.436,0,0,1,1.115-.208h1.837l-.646.323v5.1h-1.153a4.036,4.036,0,0,1-1.2-.177,3.075,3.075,0,0,1-.992-.523A2.306,2.306,0,0,1,114,9.546a2.544,2.544,0,0,1-.246-1.13,2.39,2.39,0,0,1,.261-1.122" transform="translate(-26.051 -1.053)" fill="#afacac"/>
    <path id="Path_533" data-name="Path 533" d="M76.28,15.211h2.36v-.853c0,.038.046.085.069.115a1.645,1.645,0,0,0,.676.577,2.414,2.414,0,0,0,1.03.2H101.17V4.55h-1.138v9.57H80.454a1.322,1.322,0,0,1-.53-.085.715.715,0,0,1-.323-.3,1.537,1.537,0,0,1-.177-.538,6.187,6.187,0,0,1-.046-.822V4.55H76.3A5.227,5.227,0,0,0,71,9.877h0a5.181,5.181,0,0,0,5.258,5.3M72.214,9.8a4.059,4.059,0,0,1,4.043-4.228h2.66l-.7.346v6.4a6.258,6.258,0,0,0,.108,1.2,2.59,2.59,0,0,0,.177.569H76.3a4.1,4.1,0,0,1-4.066-4.259Z" transform="translate(-16.423 -1.053)" fill="#afacac"/>
    <path id="Path_534" data-name="Path 534" d="M61.276,12.386l.492,1.307L54.55,4.53H53.42V15.184H54.6V7.151L53.927,5.6l7.556,9.586h.969V4.53H61.276Z" transform="translate(-12.357 -1.049)" fill="#afacac"/>
    <path id="Path_535" data-name="Path 535" d="M80.946,37.361l6.549-6.242V26.83H69.984V31.7h8.978L82.3,29.567l-8.317,8.348.892,3.651h2.368c3.182,0,5.073,1.184,5.073,3.29v.069c0,1.922-1.537,3.144-3.667,3.144a7.963,7.963,0,0,1-6.257-3.075L68.47,48.73a12.583,12.583,0,0,0,10.1,4.466c5.781,0,9.332-3.582,9.332-8.456v-.1c0-4.8-3.444-6.649-6.918-7.241" transform="translate(-15.838 -6.207)" fill="#afacac"/>
    <path id="Path_536" data-name="Path 536" d="M42.157,4.29A5.381,5.381,0,0,0,36.7,9.8h0a5.443,5.443,0,1,0,10.885-.031h0A5.381,5.381,0,0,0,42.157,4.29m4.174,5.542A4.182,4.182,0,0,1,42.157,14.2a4.235,4.235,0,0,1-4.212-4.4h0a4.189,4.189,0,0,1,4.182-4.366,4.235,4.235,0,0,1,4.2,4.4Z" transform="translate(-8.489 -0.993)" fill="#afacac"/>
    <path id="Path_537" data-name="Path 537" d="M109.466,26.25c-7.994,0-13.836,6.026-13.836,13.375V39.7c0,7.349,5.742,13.3,13.736,13.3S123.2,46.981,123.2,39.625v-.069c0-7.356-5.742-13.306-13.736-13.306M117.238,39.7a7.741,7.741,0,0,1-7.771,8.056,7.868,7.868,0,0,1-7.848-8.133v-.069a7.741,7.741,0,0,1,7.771-8.056,7.862,7.862,0,0,1,7.848,8.125Z" transform="translate(-22.121 -6.073)" fill="#afacac"/>
    <rect id="Rectangle_157" data-name="Rectangle 157" width="1.207" height="10.654" transform="translate(24.928 3.481)" fill="#afacac"/>
    <path id="Path_538" data-name="Path 538" d="M5.652,49.63l1.1-.846,5.665-4.366c4.612-3.544,6.811-5.688,6.811-9.993v-.077c0-4.843-3.559-7.979-8.924-7.979-4.612,0-7.11,1.883-9.662,5.381l4,3.213c1.922-2.406,3.3-3.5,5.3-3.5a3.2,3.2,0,0,1,3.482,3.367c0,2.183-1.261,3.551-4.481,6.188L.31,48.078V52.59H19.481V47.67H9.6Z" transform="translate(-0.072 -6.101)" fill="#afacac"/>
    <path id="Path_539" data-name="Path 539" d="M5.658,15.253,10.247,4.53h-1.3L5.319,13.262l.123,1.168-.307-.723L2,6.113,1.345,4.53H0L4.589,15.253Z" transform="translate(0 -1.049)" fill="#afacac"/>
    <rect id="Rectangle_158" data-name="Rectangle 158" width="1.207" height="10.654" transform="translate(11.884 3.481)" fill="#afacac"/>
    <path id="Path_540" data-name="Path 540" d="M23.953,9.227c-2.344-.507-2.9-1.068-2.9-2.075V7.144c0-.953.884-1.714,2.306-1.714a4.674,4.674,0,0,1,3.075,1.154l.676-.977A5.611,5.611,0,0,0,23.361,4.3c-2.029.023-3.5,1.253-3.5,2.929h0c0,1.753,1.122,2.544,3.582,3.075,2.237.477,2.775,1.038,2.775,2.022h0c0,1.053-.945,1.814-2.383,1.814A5.081,5.081,0,0,1,20.179,12.6l-.769.884a6.265,6.265,0,0,0,4.358,1.7c2.122,0,3.644-1.184,3.644-3.006h0c0-1.63-1.1-2.5-3.474-3.013" transform="translate(-4.49 -0.995)" fill="#afacac"/>
    <path id="Path_541" data-name="Path 541" d="M45.031,24.04l1.314,1.253-1.261,1.314L43.77,25.347Z" transform="translate(-10.125 -5.562)" fill="#28316f"/>
    <path id="Path_542" data-name="Path 542" d="M49.31,25.347l1.314,1.261,1.261-1.314L50.571,24.04Z" transform="translate(-11.406 -5.562)" fill="#b3b0b2"/>
    <path id="Path_543" data-name="Path 543" d="M46.91,27.582l1.022.976.984-1.015-1.022-.984Z" transform="translate(-10.851 -6.145)" fill="#d4d404"/>
    <rect id="Rectangle_159" data-name="Rectangle 159" width="1.414" height="1.414" transform="matrix(0.692, -0.722, 0.722, 0.692, 39.81, 21.997)" fill="#74b02e"/>
    <rect id="Rectangle_160" data-name="Rectangle 160" width="1.414" height="1.414" transform="matrix(0.692, -0.722, 0.722, 0.692, 34.39, 22.995)" fill="#d4d404"/>
    <rect id="Rectangle_161" data-name="Rectangle 161" width="1.414" height="1.414" transform="matrix(0.692, -0.722, 0.722, 0.692, 37.82, 23.119)" fill="#27afba"/>
    <path id="Path_544" data-name="Path 544" d="M47.45,31.383l.723.684.684-.715-.715-.692Z" transform="translate(-10.976 -7.093)" fill="#74b02e"/>
    <path id="Path_545" data-name="Path 545" d="M50.98,32.085l.715.692.692-.715-.715-.692Z" transform="translate(-11.793 -7.257)" fill="#59ab4c"/>
    <rect id="Rectangle_162" data-name="Rectangle 162" width="2.268" height="2.26" transform="translate(45.111 19.365) rotate(-10.39)" fill="#2882c5"/>
    <rect id="Rectangle_163" data-name="Rectangle 163" width="1.822" height="1.814" transform="translate(42.199 20.304) rotate(-10.39)" fill="#213466"/>
    <rect id="Rectangle_164" data-name="Rectangle 164" width="1.822" height="1.814" transform="translate(45.659 22.791) rotate(-10.39)" fill="#27afba"/>
    <rect id="Rectangle_165" data-name="Rectangle 165" width="1.414" height="1.414" transform="translate(43.189 23.052) rotate(-10.4)" fill="#d4d404"/>
    <rect id="Rectangle_166" data-name="Rectangle 166" width="1.414" height="1.414" transform="translate(45.897 25.695) rotate(-10.4)" fill="#b3b0b2"/>
    <rect id="Rectangle_167" data-name="Rectangle 167" width="1.414" height="1.414" transform="matrix(0.984, -0.18, 0.18, 0.984, 41.104, 23.621)" fill="#27afba"/>
    <path id="Path_546" data-name="Path 546" d="M56.76,33.024l.254,1.391,1.4-.254-.254-1.391Z" transform="translate(-13.13 -7.581)" fill="#74b02e"/>
    <rect id="Rectangle_168" data-name="Rectangle 168" width="0.999" height="0.992" transform="translate(41.86 25.609) rotate(-10.38)" fill="#b3b0b2"/>
    <rect id="Rectangle_169" data-name="Rectangle 169" width="0.999" height="0.992" transform="translate(43.739 27.635) rotate(-10.38)" fill="#59ab4c"/>
    <path id="Path_547" data-name="Path 547" d="M67.016,34.69l-.976,2.045,2.052.969.969-2.045Z" transform="translate(-15.276 -8.025)" fill="#28316f"/>
    <path id="Path_548" data-name="Path 548" d="M63.294,33.46,62.51,35.1l1.645.784.784-1.637Z" transform="translate(-14.46 -7.741)" fill="#27afba"/>
    <rect id="Rectangle_170" data-name="Rectangle 170" width="1.814" height="1.822" transform="translate(49.393 31.391) rotate(-64.53)" fill="#74b02e"/>
    <path id="Path_549" data-name="Path 549" d="M62.3,37.11l-.607,1.276,1.276.607.607-1.276Z" transform="translate(-14.27 -8.585)" fill="#d4d404"/>
    <path id="Path_550" data-name="Path 550" d="M63.137,41.96l-.607,1.276,1.284.607.607-1.276Z" transform="translate(-14.464 -9.707)" fill="#d4d404"/>
    <path id="Path_551" data-name="Path 551" d="M59.665,36.12,59.05,37.4l1.284.615.607-1.284Z" transform="translate(-13.659 -8.356)" fill="#2882c5"/>
    <path id="Path_552" data-name="Path 552" d="M60.945,39.97l-.615,1.276,1.284.607.607-1.276Z" transform="translate(-13.955 -9.246)" fill="#b3b0b2"/>
    <rect id="Rectangle_171" data-name="Rectangle 171" width="0.992" height="0.999" transform="translate(45.016 30.723) rotate(-64.52)" fill="#74b02e"/>
    <rect id="Rectangle_172" data-name="Rectangle 172" width="0.992" height="0.999" transform="translate(45.364 33.46) rotate(-64.56)" fill="#27afba"/>
    <path id="Path_553" data-name="Path 553" d="M68.151,47.42,66.16,48.5l1.092,1.983L69.242,49.4Z" transform="translate(-15.304 -10.97)" fill="#2882c5"/>
    <path id="Path_554" data-name="Path 554" d="M65.921,44.21l-1.591.876.869,1.591,1.6-.876Z" transform="translate(-14.881 -10.227)" fill="#27afba"/>
    <path id="Path_555" data-name="Path 555" d="M64.259,49.49l-1.6.876.876,1.591,1.6-.876Z" transform="translate(-14.494 -11.449)" fill="#27afba"/>
    <path id="Path_556" data-name="Path 556" d="M63.035,46.56l-1.245.684.684,1.238,1.238-.684Z" transform="translate(-14.293 -10.771)" fill="#28316f"/>
    <path id="Path_557" data-name="Path 557" d="M60.875,50.98l-1.245.684.684,1.238,1.245-.676Z" transform="translate(-13.793 -11.793)" fill="#59ab4c"/>
    <path id="Path_558" data-name="Path 558" d="M61.475,44.22,60.23,44.9l.684,1.238,1.245-.676Z" transform="translate(-13.932 -10.23)" fill="#213466"/>
    <path id="Path_559" data-name="Path 559" d="M60.265,48.09l-1.245.676L59.7,50l1.238-.676Z" transform="translate(-13.652 -11.125)" fill="#d4d404"/>
    <path id="Path_560" data-name="Path 560" d="M59.436,45.97l-.876.477.484.876.869-.484Z" transform="translate(-13.546 -10.634)" fill="#b3b0b2"/>
    <rect id="Rectangle_173" data-name="Rectangle 173" width="0.999" height="0.992" transform="translate(43.69 38.234) rotate(-28.7)" fill="#27afba"/>
    <rect id="Rectangle_174" data-name="Rectangle 174" width="2.26" height="2.268" transform="translate(45.469 46.99) rotate(-82.97)" fill="#74b02e"/>
    <rect id="Rectangle_175" data-name="Rectangle 175" width="1.814" height="1.822" transform="translate(45.954 43.557) rotate(-82.96)" fill="#213466"/>
    <rect id="Rectangle_176" data-name="Rectangle 176" width="1.814" height="1.822" transform="translate(42.542 46.104) rotate(-82.96)" fill="#27afba"/>
    <rect id="Rectangle_177" data-name="Rectangle 177" width="1.414" height="1.414" transform="translate(43.48 43.326) rotate(-82.97)" fill="#74b02e"/>
    <rect id="Rectangle_178" data-name="Rectangle 178" width="1.414" height="1.414" transform="translate(40.138 45.118) rotate(-82.97)" fill="#b3b0b2"/>
    <rect id="Rectangle_179" data-name="Rectangle 179" width="1.414" height="1.414" transform="translate(43.566 41.172) rotate(-82.94)" fill="#b3b0b2"/>
    <rect id="Rectangle_180" data-name="Rectangle 180" width="1.414" height="1.414" transform="translate(41.062 43.034) rotate(-82.94)" fill="#74b02e"/>
    <rect id="Rectangle_181" data-name="Rectangle 181" width="0.992" height="0.999" transform="matrix(0.122, -0.993, 0.993, 0.122, 41.903, 40.922)" fill="#b3b0b2"/>
    <rect id="Rectangle_182" data-name="Rectangle 182" width="0.992" height="0.999" transform="matrix(0.122, -0.993, 0.993, 0.122, 39.406, 42.118)" fill="#b3b0b2"/>
    <path id="Path_561" data-name="Path 561" d="M49.835,63.487,48.167,61.95,46.63,63.61l1.66,1.537Z" transform="translate(-10.786 -14.331)" fill="#d4d404"/>
    <path id="Path_562" data-name="Path 562" d="M49.435,22.255l-1.66-1.545L46.23,22.37l1.66,1.537Z" transform="translate(-10.694 -4.791)" fill="#74b02e"/>
    <path id="Path_563" data-name="Path 563" d="M52.327,60.348,51,59.11,49.76,60.44l1.33,1.238Z" transform="translate(-11.51 -13.674)" fill="#27afba"/>
    <path id="Path_564" data-name="Path 564" d="M46.785,60.44l-1.338-1.23L44.21,60.54l1.338,1.23Z" transform="translate(-10.227 -13.697)" fill="#74b02e"/>
    <path id="Path_565" data-name="Path 565" d="M49.326,58.331l-1.038-.961-.969,1.038,1.038.961Z" transform="translate(-10.946 -13.271)" fill="#2882c5"/>
    <rect id="Rectangle_183" data-name="Rectangle 183" width="1.414" height="1.414" transform="matrix(0.68, -0.733, 0.733, 0.68, 32.624, 44.64)" fill="#d4d404"/>
    <path id="Path_566" data-name="Path 566" d="M51.059,56.121l-1.038-.961L49.06,56.2l1.038.961Z" transform="translate(-11.348 -12.76)" fill="#d4d404"/>
    <path id="Path_567" data-name="Path 567" d="M47,56.191l-1.038-.961L45,56.268l1.038.961Z" transform="translate(-10.409 -12.776)" fill="#b3b0b2"/>
    <path id="Path_568" data-name="Path 568" d="M48.9,54.719l-.73-.669-.676.723.73.676Z" transform="translate(-10.985 -12.503)" fill="#213466"/>
    <path id="Path_569" data-name="Path 569" d="M45.357,54.076l-.73-.676-.676.73.73.676Z" transform="translate(-10.166 -12.353)" fill="#b3b0b2"/>
    <rect id="Rectangle_184" data-name="Rectangle 184" width="2.268" height="2.26" transform="translate(26.694 45.503) rotate(-11.32)" fill="#2882c5"/>
    <rect id="Rectangle_185" data-name="Rectangle 185" width="1.822" height="1.814" transform="translate(30.119 44.882) rotate(-11.33)" fill="#27afba"/>
    <rect id="Rectangle_186" data-name="Rectangle 186" width="1.822" height="1.814" transform="translate(26.625 42.443) rotate(-11.34)" fill="#74b02e"/>
    <rect id="Rectangle_187" data-name="Rectangle 187" width="1.414" height="1.414" transform="translate(29.55 42.462) rotate(-11.32)" fill="#d4d404"/>
    <rect id="Rectangle_188" data-name="Rectangle 188" width="1.414" height="1.414" transform="translate(31.629 41.866) rotate(-11.32)" fill="#28316f"/>
    <rect id="Rectangle_189" data-name="Rectangle 189" width="1.414" height="1.414" transform="translate(29.069 40.082) rotate(-11.32)" fill="#2882c5"/>
    <rect id="Rectangle_190" data-name="Rectangle 190" width="0.999" height="0.992" transform="translate(31.467 40.071) rotate(-11.535)" fill="#74b02e"/>
    <rect id="Rectangle_191" data-name="Rectangle 191" width="0.999" height="0.992" transform="translate(29.547 38.088) rotate(-11.535)" fill="#b3b0b2"/>
    <path id="Path_570" data-name="Path 570" d="M28.8,51.26l.938-2.052-2.068-.938-.938,2.052Z" transform="translate(-6.183 -11.166)" fill="#27afba"/>
    <rect id="Rectangle_192" data-name="Rectangle 192" width="1.814" height="1.822" transform="translate(23.876 40.238) rotate(-65.48)" fill="#d4d404"/>
    <rect id="Rectangle_193" data-name="Rectangle 193" width="1.814" height="1.822" transform="matrix(0.415, -0.91, 0.91, 0.415, 22.462, 36.222)" fill="#2882c5"/>
    <rect id="Rectangle_194" data-name="Rectangle 194" width="1.414" height="1.414" transform="translate(25.003 37.589) rotate(-65.49)" fill="#27afba"/>
    <path id="Path_571" data-name="Path 571" d="M36.061,53.278l.584-1.284-1.284-.584-.592,1.284Z" transform="translate(-8.043 -11.893)" fill="#b3b0b2"/>
    <rect id="Rectangle_195" data-name="Rectangle 195" width="1.414" height="1.414" transform="translate(24.294 33.863) rotate(-65.47)" fill="#28316f"/>
    <path id="Path_572" data-name="Path 572" d="M36.471,50.038l.584-1.284-1.291-.584-.584,1.284Z" transform="translate(-8.138 -11.143)" fill="#59ab4c"/>
    <rect id="Rectangle_196" data-name="Rectangle 196" width="1.414" height="1.414" transform="translate(26.015 35.373) rotate(-65.47)" fill="#d4d404"/>
    <rect id="Rectangle_197" data-name="Rectangle 197" width="0.992" height="0.999" transform="translate(27.951 36.422) rotate(-65.47)" fill="#213466"/>
    <path id="Path_573" data-name="Path 573" d="M36.757,43.972l.415-.907-.907-.415-.415.907Z" transform="translate(-8.293 -9.866)" fill="#74b02e"/>
    <path id="Path_574" data-name="Path 574" d="M27.432,38.532,29.4,37.41l-1.122-1.96L26.31,36.565Z" transform="translate(-6.086 -8.201)" fill="#27afba"/>
    <path id="Path_575" data-name="Path 575" d="M29.9,41.883l1.576-.907-.9-1.576L29,40.3Z" transform="translate(-6.708 -9.115)" fill="#74b02e"/>
    <path id="Path_576" data-name="Path 576" d="M31.469,36.573l1.583-.9-.907-1.583L30.57,35Z" transform="translate(-7.071 -7.886)" fill="#213466"/>
    <path id="Path_577" data-name="Path 577" d="M32.91,39.649l1.23-.7-.7-1.23-1.23.7Z" transform="translate(-7.451 -8.726)" fill="#2882c5"/>
    <path id="Path_578" data-name="Path 578" d="M35,35.189l1.23-.7-.707-1.23-1.23.7Z" transform="translate(-7.932 -7.694)" fill="#74b02e"/>
    <path id="Path_579" data-name="Path 579" d="M34.507,41.959l1.23-.7-.7-1.23-1.238.7Z" transform="translate(-7.819 -9.26)" fill="#27afba"/>
    <path id="Path_580" data-name="Path 580" d="M35.657,38.079l1.23-.7-.7-1.23-1.238.7Z" transform="translate(-8.085 -8.363)" fill="#d4d404"/>
    <rect id="Rectangle_198" data-name="Rectangle 198" width="0.999" height="0.992" transform="translate(27.82 30.473) rotate(-29.67)" fill="#b3b0b2"/>
    <path id="Path_581" data-name="Path 581" d="M38.37,37.173l.861-.492-.492-.861-.869.492Z" transform="translate(-8.76 -8.287)" fill="#74b02e"/>
    <rect id="Rectangle_199" data-name="Rectangle 199" width="2.26" height="2.268" transform="matrix(0.106, -0.994, 0.994, 0.106, 26.045, 21.679)" fill="#74b02e"/>
    <rect id="Rectangle_200" data-name="Rectangle 200" width="1.814" height="1.822" transform="translate(26.115 24.725) rotate(-83.86)" fill="#b3b0b2"/>
    <rect id="Rectangle_201" data-name="Rectangle 201" width="1.814" height="1.822" transform="translate(29.489 22.122) rotate(-83.86)" fill="#27afba"/>
    <rect id="Rectangle_202" data-name="Rectangle 202" width="1.414" height="1.414" transform="translate(29.042 24.553) rotate(-83.92)" fill="#d4d404"/>
    <rect id="Rectangle_203" data-name="Rectangle 203" width="1.414" height="1.414" transform="translate(32.344 22.71) rotate(-83.88)" fill="#2882c5"/>
    <rect id="Rectangle_204" data-name="Rectangle 204" width="1.414" height="1.414" transform="translate(28.989 26.707) rotate(-83.88)" fill="#27afba"/>
    <rect id="Rectangle_205" data-name="Rectangle 205" width="1.414" height="1.414" transform="translate(31.461 24.812) rotate(-83.88)" fill="#74b02e"/>
    <rect id="Rectangle_206" data-name="Rectangle 206" width="0.992" height="0.999" transform="translate(31.112 26.555) rotate(-83.86)" fill="#213466"/>
    <rect id="Rectangle_207" data-name="Rectangle 207" width="0.992" height="0.999" transform="translate(33.586 25.33) rotate(-83.91)" fill="#b3b0b2"/>
    <path id="Path_582" data-name="Path 582" d="M53.257,42.645a4.689,4.689,0,0,0-.9-.392,5.381,5.381,0,0,0-2.475-.177,6.1,6.1,0,0,0-1.068.277h-.108a6.05,6.05,0,0,0-.569.246l-.484.269a9.6,9.6,0,0,0-1.076.769,23.13,23.13,0,0,1-.115-5.773h0c.853.538.615,2.037.438,2.467h0a2.652,2.652,0,0,0,.323-3h0a2.306,2.306,0,0,1,.945,1.7,4.8,4.8,0,0,1,0,.577v.123h0a2.468,2.468,0,0,0,0-2.245,2.844,2.844,0,0,0-.484-.661l-.192-.184h0l.184.054a1.807,1.807,0,0,1,.484.254,2.037,2.037,0,0,1,.653.915,2.383,2.383,0,0,1,.154.83h0A2.083,2.083,0,0,0,48.8,37a2.022,2.022,0,0,0-.63-.676,2.352,2.352,0,0,0-.484-.215,1.622,1.622,0,0,0-.231-.054h.231a3.073,3.073,0,0,1,.484.038,1.776,1.776,0,0,1,.677.269,1.422,1.422,0,0,1,.446.484h0a1.376,1.376,0,0,0-.469-.907,1.73,1.73,0,0,0-.653-.384,1.753,1.753,0,0,0-.484-.069,1.537,1.537,0,0,0-.6.108h0a1.161,1.161,0,0,1,.615-.43,1.33,1.33,0,0,1,.484-.061,1.176,1.176,0,0,1,.392.1h0a1.484,1.484,0,0,0-.407-.331,1.23,1.23,0,0,0-.484-.154,1.191,1.191,0,0,0-1.161.577h0c-.054-.1-.108-.215-.161-.331a3.728,3.728,0,0,1-.261-.876h0a4.143,4.143,0,0,1-.269.876,2.2,2.2,0,0,1-.161.331h0a1.245,1.245,0,0,0-2.114-.123h0a1.261,1.261,0,0,1,1.491.392h0a1.768,1.768,0,0,0-1.914.477,1.322,1.322,0,0,0-.315.769h0a1.222,1.222,0,0,1,.3-.361,1.929,1.929,0,0,1,1.537-.415h0a2.045,2.045,0,0,0-1.537,1.238,2.168,2.168,0,0,0,0,1.376h0a.085.085,0,0,1,0-.038A2.037,2.037,0,0,1,44.61,36.6h0a2.5,2.5,0,0,0-.676,3.075h0a2.529,2.529,0,0,1,.853-2.368h0a2.652,2.652,0,0,0,.331,3h0c-.184-.43-.423-1.929.43-2.467h0a23.13,23.13,0,0,1-.115,5.757,8.456,8.456,0,0,0-2.122-1.261l-.261-.092a5.481,5.481,0,0,0-2.014-.284,5.135,5.135,0,0,0-2.075.523l-.2.108v.038l.184-.054a5.788,5.788,0,0,1,2.075-.208,6.149,6.149,0,0,1,2.014.546,10.554,10.554,0,0,1,2.391,1.537A26.787,26.787,0,0,1,43.034,46.5l-.077.046a.592.592,0,0,0-.584-.223.584.584,0,0,0-.415.415.515.515,0,0,0,.108.484.807.807,0,0,0,.969.146,13.683,13.683,0,0,0,2.644-2.206l.277-.246.269.238c.484.446.93.884,1.338,1.253q.254.231.484.415a3.6,3.6,0,0,0,.676.469.869.869,0,0,0,1.068,0l.046-.046a.646.646,0,0,0,.115-.484.6.6,0,0,0-.161-.269.553.553,0,0,0-.261-.146.569.569,0,0,0-.577.223l-.231-.138c-.192-.138-.423-.323-.676-.546s-.315-.277-.484-.438c-.331-.3-.692-.63-1.084-.969.346-.284.707-.561,1.084-.815l.484-.307a7.112,7.112,0,0,1,.676-.361,6.381,6.381,0,0,1,1.068-.407,5.527,5.527,0,0,1,2.475-.154,6.541,6.541,0,0,1,.876.208V42.6" transform="translate(-8.966 -7.886)" fill="#757a81"/>
    <rect id="Rectangle_208" data-name="Rectangle 208" width="0.669" height="0.669" transform="translate(5.265 59.403)" fill="#afacac"/>
    <path id="Path_583" data-name="Path 583" d="M62.3,74.954v-4.4h-.653v3.759H59.194V70.55h-.653v3.759H55.958V70.55H54.936a3.344,3.344,0,0,0-1.107.169,2.422,2.422,0,0,0-.846.461,2.014,2.014,0,0,0-.546.7,2.206,2.206,0,0,0,0,1.868,2.014,2.014,0,0,0,.584.684,2.552,2.552,0,0,0,.853.392,3.782,3.782,0,0,0,1.03.131Zm-8.325-.769a1.707,1.707,0,0,1-.561-.3,1.584,1.584,0,0,1-.377-.492,1.484,1.484,0,0,1-.138-.653,1.368,1.368,0,0,1,.154-.638,1.537,1.537,0,0,1,.4-.492,1.683,1.683,0,0,1,.561-.315,1.922,1.922,0,0,1,.653-.115H55.3v3.075h-.638a2.252,2.252,0,0,1-.692-.108" transform="translate(-12.082 -16.32)" fill="#afacac"/>
    <rect id="Rectangle_209" data-name="Rectangle 209" width="0.653" height="5.827" transform="translate(36.305 52.808)" fill="#afacac"/>
    <rect id="Rectangle_210" data-name="Rectangle 210" width="0.669" height="0.669" transform="translate(43.208 52.808)" fill="#afacac"/>
    <rect id="Rectangle_211" data-name="Rectangle 211" width="0.669" height="0.669" transform="translate(49.557 59.395)" fill="#afacac"/>
    <rect id="Rectangle_212" data-name="Rectangle 212" width="0.669" height="0.669" transform="translate(6.403 59.403)" fill="#afacac"/>
    <path id="Path_584" data-name="Path 584" d="M37.542,73.883H36.474a2.029,2.029,0,0,1-.892-.161,1.138,1.138,0,0,1-.515-.492,2.737,2.737,0,0,0,.054-.607V70.532h-.646v2.2a1.322,1.322,0,0,1-.3.9,1.184,1.184,0,0,1-.915.331,1.622,1.622,0,0,1-.523-.085,1.284,1.284,0,0,1-.407-.246,1.115,1.115,0,0,1-.261-.361.969.969,0,0,1-.108-.438V70.524h-.653v2.252a1.4,1.4,0,0,1-.085.507,1.045,1.045,0,0,1-.246.346,1.061,1.061,0,0,1-.354.192,1.468,1.468,0,0,1-.415.062H28.948V70.532H28.3v3.351H24.882l1.145-2.721a5.851,5.851,0,0,0-.553-.423,4.444,4.444,0,0,0-.607-.354,3.2,3.2,0,0,0-.623-.231,2.26,2.26,0,0,0-.63-.085,2.221,2.221,0,0,0-.63.085,3.275,3.275,0,0,0-.63.231,3.9,3.9,0,0,0-.6.346,6.148,6.148,0,0,0-.546.43l1.145,2.721H20.1V70.124H19.063a3.328,3.328,0,0,0-1.1.169,2.567,2.567,0,0,0-.846.469,2.022,2.022,0,0,0-.769,1.591,2.1,2.1,0,0,0,.215.992,1.883,1.883,0,0,0,.584.669,2.529,2.529,0,0,0,.861.392,4.066,4.066,0,0,0,1.03.123h.392v.192a.861.861,0,0,1-.292.769,1.361,1.361,0,0,1-.822.215,2.391,2.391,0,0,1-.546-.054,3.5,3.5,0,0,1-.546-.2l-.2.63a5.718,5.718,0,0,0,.661.208,2.459,2.459,0,0,0,.577.069,1.837,1.837,0,0,0,1.384-.454,1.668,1.668,0,0,0,.43-1.215v-.123H30.209a1.676,1.676,0,0,0,1.445-.769,1.614,1.614,0,0,0,.638.607,2.022,2.022,0,0,0,.969.223,2.306,2.306,0,0,0,1-.2,1.43,1.43,0,0,0,.63-.63,1.537,1.537,0,0,0,.2.277,1.207,1.207,0,0,0,.3.238,1.93,1.93,0,0,0,.454.169,2.629,2.629,0,0,0,.469.054h1.876V68.71h-.646Zm-18.087,0h-.661a2.406,2.406,0,0,1-.684-.1,1.745,1.745,0,0,1-.569-.3,1.445,1.445,0,0,1-.384-.477,1.484,1.484,0,0,1-.138-.653,1.368,1.368,0,0,1,.154-.638,1.537,1.537,0,0,1,.4-.5,1.845,1.845,0,0,1,.561-.323,1.922,1.922,0,0,1,.661-.108h.661Zm3.582,0-1.015-2.491a2.552,2.552,0,0,1,.769-.469,2.468,2.468,0,0,1,.822-.138,2.368,2.368,0,0,1,.876.169,2.529,2.529,0,0,1,.73.438l-1.015,2.491Z" transform="translate(-3.782 -15.894)" fill="#afacac"/>
    <rect id="Rectangle_213" data-name="Rectangle 213" width="0.669" height="0.669" transform="translate(3.036 52.808)" fill="#afacac"/>
    <rect id="Rectangle_214" data-name="Rectangle 214" width="0.669" height="0.669" transform="translate(68.836 52.808)" fill="#afacac"/>
    <rect id="Rectangle_215" data-name="Rectangle 215" width="0.653" height="5.827" transform="translate(63.078 52.808)" fill="#afacac"/>
    <rect id="Rectangle_216" data-name="Rectangle 216" width="0.669" height="0.669" transform="translate(42.062 52.808)" fill="#afacac"/>
    <path id="Path_585" data-name="Path 585" d="M13.892,72.426a2.4,2.4,0,0,0-.077-.769,1.414,1.414,0,0,0-.315-.569,1.722,1.722,0,0,0-.577-.43,1.991,1.991,0,0,0-.769-.138h-.484v.646h.569a1.038,1.038,0,0,1,.454.108.984.984,0,0,1,.346.261,1.061,1.061,0,0,1,.192.369,2.237,2.237,0,0,1,.054.492v1.883H10.21v.646h3.682Z" transform="translate(-2.362 -16.313)" fill="#afacac"/>
    <rect id="Rectangle_217" data-name="Rectangle 217" width="0.653" height="5.827" transform="translate(97.492 52.808)" fill="#afacac"/>
    <rect id="Rectangle_218" data-name="Rectangle 218" width="0.669" height="0.669" transform="translate(69.973 52.808)" fill="#afacac"/>
    <path id="Path_586" data-name="Path 586" d="M115.746,68.71h-.653v5.173h-2.237a2.252,2.252,0,0,0,.208-.961,2.352,2.352,0,0,0-.676-1.683,2.191,2.191,0,0,0-.769-.5,2.4,2.4,0,0,0-.938-.184,2.26,2.26,0,0,0-.915.184,2.429,2.429,0,0,0-.769.507,2.345,2.345,0,0,0-.484.769,2.306,2.306,0,0,0-.184.922,2.122,2.122,0,0,0,.054.5,2.936,2.936,0,0,0,.146.461h-1.983a2.252,2.252,0,0,0,.208-.961,2.352,2.352,0,0,0-.684-1.683,2.191,2.191,0,0,0-.769-.5,2.4,2.4,0,0,0-.938-.184,2.26,2.26,0,0,0-.915.184,2.306,2.306,0,0,0-.769.507,2.391,2.391,0,0,0-.5.769,2.437,2.437,0,0,0-.177.922,2.621,2.621,0,0,0,.054.5,2.936,2.936,0,0,0,.146.461h-2.068v-5.2h-.653v5.173H97.413v-1a2.659,2.659,0,0,0-.1-.707,1.537,1.537,0,0,0-.307-.569,1.645,1.645,0,0,0-.569-.423,2.052,2.052,0,0,0-.769-.138H92.8l1.23-2.306h-.707l-1.253,2.306a1.445,1.445,0,0,0,.1.361,1.2,1.2,0,0,0,.192.292h3.321a1.368,1.368,0,0,1,.53.092.915.915,0,0,1,.361.261.946.946,0,0,1,.192.369,2.206,2.206,0,0,1,.046.469v1H90.795V70.124H89.772a3.344,3.344,0,0,0-1.107.169,2.421,2.421,0,0,0-.846.461,2.168,2.168,0,0,0-.515,2.567,2.022,2.022,0,0,0,.584.684,2.552,2.552,0,0,0,.853.392,3.782,3.782,0,0,0,1.03.131h12.906a2.306,2.306,0,0,0,.769.546,2.237,2.237,0,0,0,.945.2,2.4,2.4,0,0,0,.969-.2,2.306,2.306,0,0,0,.769-.546H109a2.306,2.306,0,0,0,.769.546,2.237,2.237,0,0,0,.945.2,2.4,2.4,0,0,0,.969-.2,2.306,2.306,0,0,0,.769-.546h3.313Zm-25.6,5.173H89.5a2.252,2.252,0,0,1-.692-.108,1.791,1.791,0,0,1-.561-.3,1.583,1.583,0,0,1-.377-.492,1.483,1.483,0,0,1-.138-.653,1.368,1.368,0,0,1,.154-.638,1.537,1.537,0,0,1,.4-.492,1.683,1.683,0,0,1,.561-.315,1.922,1.922,0,0,1,.653-.115h.638Zm15.827-.292a1.8,1.8,0,0,1-.369.546,1.614,1.614,0,0,1-.546.346,1.768,1.768,0,0,1-.676.131,1.692,1.692,0,0,1-1.191-.5,1.676,1.676,0,0,1-.354-.538,1.837,1.837,0,0,1,0-1.322,1.7,1.7,0,0,1,.346-.538,1.6,1.6,0,0,1,.523-.377,1.637,1.637,0,0,1,.676-.131,1.807,1.807,0,0,1,.684.123,1.776,1.776,0,0,1,.546.361,1.614,1.614,0,0,1,.361.538,1.806,1.806,0,0,1,.131.684,1.768,1.768,0,0,1-.131.676m6.311,0a1.8,1.8,0,0,1-.369.546,1.614,1.614,0,0,1-.546.346,1.8,1.8,0,0,1-.676.131,1.629,1.629,0,0,1-.669-.138,1.537,1.537,0,0,1-.523-.361,1.676,1.676,0,0,1-.354-.538,1.837,1.837,0,0,1,0-1.322,1.7,1.7,0,0,1,.346-.538,1.6,1.6,0,0,1,.523-.377,1.637,1.637,0,0,1,.676-.131,1.807,1.807,0,0,1,.684.123,1.776,1.776,0,0,1,.546.361,1.614,1.614,0,0,1,.361.538,1.806,1.806,0,0,1,.131.684,1.768,1.768,0,0,1-.131.676" transform="translate(-20.145 -15.894)" fill="#afacac"/>
    <path id="Path_587" data-name="Path 587" d="M1.66,74.824a3.728,3.728,0,0,0,1.022.131H6.918v-4.4H6.3v3.759H3.7V70.55H2.683a3.344,3.344,0,0,0-1.107.169,2.491,2.491,0,0,0-.846.461,1.991,1.991,0,0,0-.538.7A1.976,1.976,0,0,0,0,72.756a2.1,2.1,0,0,0,.223.992,2.014,2.014,0,0,0,.584.684,2.552,2.552,0,0,0,.853.392M.653,72.756a1.368,1.368,0,0,1,.115-.638,1.653,1.653,0,0,1,.43-.454,1.714,1.714,0,0,1,.569-.315,1.845,1.845,0,0,1,.646-.115h.661v3.075H2.413a2.237,2.237,0,0,1-.684-.108,1.707,1.707,0,0,1-.561-.3,1.46,1.46,0,0,1-.515-1.145" transform="translate(0 -16.32)" fill="#afacac"/>
    <rect id="Rectangle_219" data-name="Rectangle 219" width="0.669" height="0.669" transform="translate(47.182 59.403)" fill="#afacac"/>
    <rect id="Rectangle_220" data-name="Rectangle 220" width="0.669" height="0.669" transform="translate(46.044 59.403)" fill="#afacac"/>
    <path id="Path_588" data-name="Path 588" d="M68.123,75.351a3.643,3.643,0,0,0,.062-.684v-.138h8.363V68.71H75.9v5.173H73.135l1.138-2.721a5.851,5.851,0,0,0-.553-.423,3.951,3.951,0,0,0-.6-.354,3.276,3.276,0,0,0-.63-.231,2.168,2.168,0,0,0-.623-.085,2.306,2.306,0,0,0-.638.085,3.475,3.475,0,0,0-.63.231,3.9,3.9,0,0,0-.6.346,6,6,0,0,0-.538.43l1.145,2.721H68.185V70.124h-.653v4.543a2.759,2.759,0,0,1,0,.469.769.769,0,0,1-.092.307.446.446,0,0,1-.192.169.676.676,0,0,1-.3.054h-.338l-.169.623a1.806,1.806,0,0,0,.53.077,1.322,1.322,0,0,0,.584-.115.961.961,0,0,0,.392-.331,1.614,1.614,0,0,0,.208-.523M70.3,71.439a2.652,2.652,0,0,1,.769-.469,2.514,2.514,0,0,1,.83-.146,2.306,2.306,0,0,1,.869.177,2.529,2.529,0,0,1,.769.438L72.52,73.929H71.29Z" transform="translate(-15.369 -15.894)" fill="#afacac"/>
    <rect id="Rectangle_221" data-name="Rectangle 221" width="0.669" height="0.669" transform="translate(1.898 52.808)" fill="#afacac"/>
    <path id="Path_589" data-name="Path 589" d="M4.858,81.83h-1L1.645,84.167V81.83H.83v4.643h.815V85.128l.723-.746,1.591,2.091h.984L2.929,83.829Z" transform="translate(-0.192 -18.929)" fill="#afacac"/>
    <rect id="Rectangle_222" data-name="Rectangle 222" width="0.815" height="4.635" transform="translate(5.496 62.901)" fill="#afacac"/>
    <path id="Path_590" data-name="Path 590" d="M13.094,85.035,10.611,81.83H9.85v4.643h.8V83.168l2.567,3.305H13.9V81.83h-.807Z" transform="translate(-2.279 -18.929)" fill="#afacac"/>
    <path id="Path_591" data-name="Path 591" d="M18.814,84.568H20v.869a1.929,1.929,0,0,1-1.122.346,1.537,1.537,0,0,1-1.576-1.66h0a1.537,1.537,0,0,1,1.537-1.637,1.814,1.814,0,0,1,1.3.5l.515-.615a2.5,2.5,0,0,0-1.783-.63,2.368,2.368,0,0,0-2.4,2.4h0a2.306,2.306,0,0,0,2.383,2.414,2.967,2.967,0,0,0,1.937-.769V83.861H18.814Z" transform="translate(-3.809 -18.908)" fill="#afacac"/>
    <path id="Path_592" data-name="Path 592" d="M25.29,81.828H23.56V86.44h1.73a2.306,2.306,0,0,0,2.467-2.306h0a2.306,2.306,0,0,0-2.467-2.306M26.9,84.134a1.537,1.537,0,0,1-1.614,1.537h-.915v-3.1h.915A1.537,1.537,0,0,1,26.9,84.111Z" transform="translate(-5.45 -18.928)" fill="#afacac"/>
    <path id="Path_593" data-name="Path 593" d="M32.452,81.73A2.375,2.375,0,0,0,30,84.128h0a2.437,2.437,0,1,0,4.873.023h0a2.36,2.36,0,0,0-2.421-2.383m1.537,2.414a1.537,1.537,0,0,1-1.537,1.637,1.6,1.6,0,0,1-1.583-1.653h0a1.537,1.537,0,0,1,1.537-1.63,1.591,1.591,0,0,1,1.583,1.645Z" transform="translate(-6.939 -18.906)" fill="#afacac"/>
    <path id="Path_594" data-name="Path 594" d="M39.943,84.028l-1.414-2.2H37.66v4.643h.8V83.16l1.453,2.168h.031l1.468-2.183v3.328h.815V81.83h-.869Z" transform="translate(-8.711 -18.929)" fill="#afacac"/>
    <path id="Path_595" data-name="Path 595" d="M49.917,81.73a2.375,2.375,0,0,0-2.437,2.4h0a2.429,2.429,0,0,0,4.858,0h0a2.352,2.352,0,0,0-2.421-2.383m1.537,2.414A1.537,1.537,0,0,1,49.917,85.8a1.591,1.591,0,0,1-1.537-1.653h0a1.537,1.537,0,0,1,1.537-1.63A1.591,1.591,0,0,1,51.5,84.159Z" transform="translate(-10.983 -18.906)" fill="#afacac"/>
    <path id="Path_596" data-name="Path 596" d="M55.12,86.473h.822V84.582h2.337v-.746H55.942V82.576h2.637V81.83H55.12Z" transform="translate(-12.75 -18.929)" fill="#afacac"/>
    <path id="Path_597" data-name="Path 597" d="M65.083,83.754c-.884-.215-1.1-.369-1.1-.769h0c0-.3.277-.546.769-.546a2.068,2.068,0,0,1,1.261.477l.438-.615a2.537,2.537,0,0,0-1.683-.584,1.414,1.414,0,0,0-1.584,1.345h0c0,.861.553,1.153,1.537,1.391.861.192,1.045.377,1.045.707h0c0,.346-.315.577-.822.577a2.145,2.145,0,0,1-1.468-.6L63,85.776a2.9,2.9,0,0,0,1.945.769c.976,0,1.66-.515,1.66-1.384h0c0-.769-.515-1.115-1.537-1.353" transform="translate(-14.573 -18.901)" fill="#afacac"/>
    <path id="Path_598" data-name="Path 598" d="M70.295,81.79,68.25,86.464h.838l.507-1.122h2.2l.469,1.122h.861L71.079,81.79Zm-.43,2.829.769-1.853.769,1.853Z" transform="translate(-15.787 -18.92)" fill="#afacac"/>
    <path id="Path_599" data-name="Path 599" d="M78.334,84.505c0,.853-.446,1.291-1.168,1.291s-1.176-.469-1.176-1.33V81.83h-.815v2.675a1.829,1.829,0,0,0,1.976,2.068,1.853,1.853,0,0,0,2-2.083V81.83h-.815Z" transform="translate(-17.385 -18.929)" fill="#afacac"/>
    <path id="Path_600" data-name="Path 600" d="M83.64,81.828H81.91V86.44h1.73a2.306,2.306,0,0,0,2.467-2.306h0a2.306,2.306,0,0,0-2.467-2.306m1.614,2.306a1.537,1.537,0,0,1-1.614,1.537h-.892v-3.1h.915a1.537,1.537,0,0,1,1.614,1.537Z" transform="translate(-18.947 -18.928)" fill="#afacac"/>
    <rect id="Rectangle_223" data-name="Rectangle 223" width="0.815" height="4.635" transform="translate(68.198 62.901)" fill="#afacac"/>
    <path id="Path_601" data-name="Path 601" d="M95.515,81.79,93.47,86.464h.838l.477-1.122h2.168l.469,1.122h.861L96.237,81.79Zm-.43,2.829.769-1.853.807,1.853Z" transform="translate(-21.621 -18.92)" fill="#afacac"/>
    <path id="Path_602" data-name="Path 602" d="M104.577,83.317h0a1.384,1.384,0,0,0-.384-1,1.883,1.883,0,0,0-1.345-.469H100.78v4.612h.815V84.855h1.022l1.138,1.622h.969l-1.253-1.76a1.391,1.391,0,0,0,1.107-1.4m-2.982.815V82.595h1.191c.6,0,.961.269.961.769h0c0,.469-.377.769-.961.769Z" transform="translate(-23.312 -18.933)" fill="#afacac"/>
    <path id="Path_603" data-name="Path 603" d="M108.735,81.79l-2.045,4.674h.838L108,85.341h2.2l.469,1.122h.869L109.5,81.79Zm-.43,2.829.769-1.853.807,1.853Z" transform="translate(-24.679 -18.92)" fill="#afacac"/>
    <path id="Path_604" data-name="Path 604" d="M116.944,84.06a1.107,1.107,0,0,0,.669-1.038h0a1.022,1.022,0,0,0-.315-.769,1.668,1.668,0,0,0-1.215-.415H114v4.612h2.152c1.03,0,1.714-.446,1.714-1.276h0a1.138,1.138,0,0,0-.922-1.13M114.8,82.508h1.176c.523,0,.815.231.815.592h0c0,.423-.354.63-.876.63h-1.145Zm2.275,2.606c0,.415-.338.638-.9.638h-1.407V84.476h1.3c.638,0,.953.238.953.623Z" transform="translate(-26.37 -18.931)" fill="#afacac"/>
    <rect id="Rectangle_224" data-name="Rectangle 224" width="0.815" height="4.635" transform="translate(92.511 62.901)" fill="#afacac"/>
    <path id="Path_605" data-name="Path 605" d="M125.223,81.79h-.769l-2.045,4.674h.838l.477-1.122h2.214l.477,1.122h.861Zm-1.191,2.829.769-1.853.769,1.853Z" transform="translate(-28.315 -18.92)" fill="#afacac"/>
  </g>
</svg>
